<?xml version="1.0" encoding="UTF-8"?>
<svg id="Layer_1" xmlns="http://www.w3.org/2000/svg" version="1.1" viewBox="0 0 724 768">
  <!-- Generator: Adobe Illustrator 29.0.0, SVG Export Plug-In . SVG Version: 2.1.0 Build 186)  -->
  <defs>
    <style>
      .st0 {
        fill: #3f3f3f;
      }

      .st1 {
        fill: #efad1e;
      }

      .st2 {
        fill: #f6f6f7;
      }

      .st3 {
        fill: #f1ae1e;
      }

      .st4 {
        fill: #ed6125;
      }

      .st5 {
        fill: #070706;
      }

      .st6 {
        fill: #f7f8f8;
      }

      .st7 {
        fill: #fff;
      }

      .st8 {
        fill: #5ba5d8;
      }

      .st9 {
        fill: #12222d;
      }

      .st10 {
        fill: #0e0e0e;
      }

      .st11 {
        fill: #eeae24;
      }
    </style>
  </defs>
  <g>
    <path class="st9" d="M234.7,432.1c.4-1.2.8-2.4,1.3-3.4.2-.4.4-.7.6-1l7.8,4.5c0,.1-.2.3-.3.5h0c-.3.6-.5,1.2-.8,2l-8.6-2.5Z"/>
    <path class="st4" d="M240.5,429.9s0,0,0,0c0,0,0,0,0,0M240.5,429.9c-.1.2-.3.5-.4.8-.4.8-.7,1.7-1,2.6.3-1,.6-1.8,1-2.6.1-.3.3-.5.4-.8M239.1,433.3s0,0,0,0c0,0,0,0,0,0M232.7,425.3l6.7,4-6.7-3.9h0s0,0,0,0h0c-.2.4-.5.9-.7,1.3-.6,1.2-1.1,2.6-1.5,4h0s0,0,0,0h0c0,0,17.3,5.1,17.3,5.1l-17.2-5.1,17.2,5.1-17.2-5.1,17.2,5.1c.1-.5.3-.9.5-1.2,0,0,0-.1.1-.2h0s-8.5-4.9-8.5-4.9l-7.1-4.2h0Z"/>
  </g>
  <g>
    <path class="st9" d="M234.1,434.5c.2-.8.4-1.7.6-2.4l8.6,2.5c-.2.5-.3,1.1-.4,1.7l-8.8-1.8Z"/>
    <path class="st4" d="M239,433.3c-.2.7-.4,1.3-.5,2,.1-.7.3-1.4.5-2M230.4,430.8c-.3.9-.5,1.8-.7,2.8l17.6,3.5c0-.5.2-.9.3-1.3l-17.3-5.1h0Z"/>
  </g>
  <g>
    <path class="st9" d="M277.6,515.9c-.4-.7-.8-1.4-1.2-2.1-.4-.8-.7-1.7-.7-2.7l9-.9c0-.2,0-.3,0-.3.2.3.4.7.6,1l-7.5,4.9Z"/>
    <path class="st4" d="M280.2,510.7c0,.4.1.8.3,1.2.2.5.5,1,.9,1.5-.3-.5-.6-1-.9-1.5-.2-.4-.3-.8-.3-1.2M286.4,510.1l-15.2,1.5c.1,1.4.5,2.8,1.2,4.2.4.9.9,1.8,1.5,2.6l12.6-8.2h0Z"/>
  </g>
  <g>
    <path class="st9" d="M417.1,529.2l7.2,3.3c-.2.5-.5.9-.7,1.3l-6.5-4.6Z"/>
    <path class="st4" d="M420.3,530.7c0,.2-.2.4-.3.6h0c.1-.2.2-.4.3-.6M417,529.2l10.3,7.2c.4-.6.8-1.3,1.1-1.9l-11.4-5.3h0Z"/>
  </g>
  <g>
    <path class="st9" d="M416.3,524.3c0-.3,0-.7,0-1l9-.2c0,.3,0,.6,0,.9l-9,.4Z"/>
    <path class="st4" d="M420.7,523.2c0,.3,0,.6,0,1,0-.3,0-.6,0-1h0M429.7,523l-18,.4c0,.4,0,.7,0,1.1l18-.7c0-.3,0-.5,0-.8h0Z"/>
  </g>
  <g>
    <path class="st9" d="M239.4,424.3c.5-.4,1.1-.7,1.7-1l4,8c0,0-.1,0-.2.1l-5.5-7.1Z"/>
    <path class="st4" d="M243.1,427.2c-.3.2-.6.3-.9.6.3-.2.6-.4.9-.6M242.2,427.8s0,0,0,0c0,0,0,0,0,0M239.1,419.2c-.8.4-1.6.9-2.3,1.4h0s0,0,0,0l1.6,2.1-1.6-2.1h0s0,0,0,0l8.2,10.6.6.8.2.2h0s2,2.6,2,2.6l-2-2.6,2,2.6-2.1-2.7-6.5-13h0Z"/>
  </g>
  <g>
    <path class="st9" d="M252.2,476.8l2.7,8.2c-.8.3-1.6.4-2.4.4l-.4-8.6Z"/>
    <path class="st4" d="M253.5,480.7s0,0,0,0c0,0,0,0,0,0M253.5,480.7c-.4.1-.8.2-1.2.2.4,0,.8,0,1.2-.2"/>
  </g>
  <g>
    <path class="st9" d="M358.4,746.7c-7.6-6.1-14.7-12.2-21.6-18.2-3.7-3.2-7.4-6.4-11.3-9.7-38-32.1-70.9-65.7-98-99.6-52.2-65.4-94.3-147.8-121.8-238.3-27.3-89.7-38.5-181.7-32.5-266,.3-3.8.7-7.9,1.4-12l.3-2.1,1.9-1.1c38.7-22.4,71.2-38.1,102.3-49.6,53.5-19.7,112-29.7,173.6-29.7,100.1,0,202.2,26.9,287.6,75.6.6.3,1.1.6,1.7.9,2.2,1.2,4.6,2.5,6.7,4.4l1.4,1.2v1.9c.5,4.8.5,6.1.5,7,0,.4,0,.8,0,1.5,14.6,189.2-55.4,400-178.2,537-31.8,35.5-70.9,67.5-108.5,96.8l-2.8,2.2-2.8-2.2ZM420.6,667.5c.1-.1.2-.2.4-.3l-20.6-23.6h47.2c0,0,.2-.1.2-.2l-21.3-24.3-.5.5,19.5,23h-45.5c-.2.2-.5.4-.7.6l21.3,24.3ZM161,269c.1,5.6,1.2,13.3,2,19.6.2,1.4.4,2.7.5,3.9,7.3,55.8,28.6,120.9,59.8,183.2,31.9,63.7,78.3,123,137.9,176.5,1.2-1,2.3-2.1,3.5-3.1,11.3-10,22.9-20.4,33.2-31.2,72.5-76.5,118.7-160.1,145.3-263.1,7.9-30.7,13-56.1,15.6-77.7v-1.1c.8-5.5,1-8.4,1.1-10-4.1-2.1-15.5-7.2-20.3-9.2-57-24-116.2-36.2-175.8-36.2s-74.1,4.7-110.5,14.1c-30,7.7-61.1,19.3-92.3,34.3ZM271.9,620.6h.4c0,0,1.5.3,1.5.3l1.1,1.1c.4.5,1.1,1.3,2.3,2.8,1,1.3,3,3.6,4.6,5.4,0,0,0,0,0,0l-7.9-9.6v-1.6c0-2.2,1.2-3.7,4.1-6.2,3.5-3,4.6-3.4,5.8-3.5h.2s.2,0,.2,0c.9,0,1.7,0,2.7.8-.6-.6-1.1-1.2-1.7-1.8-.4-.4-.9-1.1-1.7-2.2-7.8,6.4-16.7,14.2-24.2,21.4.3.3.6.7.9,1,0,0,.1-.1.2-.2,6.2-5.9,8.5-7.6,11.1-7.6h.3ZM300.2,624.5c1.1,1.3,2.2,2.6,3.2,3.7-1.6-2.1-3.5-4.2-5.5-6.4.7.8,1.5,1.8,2.3,2.7ZM468,621.2l3.2-3.8c-.9.5-1.9.7-2.9.7-1.5,0-2.6-.5-3.3-.8-.7-.3-5.3-3.6-6.1-5-1.3-2.1-.9-4.2-.1-5.7-.6.5-1.2.7-1.8.9-.4,0-.8.2-1.2.2-3.2,0-9.5-4.7-9.5-8.7,0-.3,0-.6,0-.9-.8.9-1.6,1.8-2.4,2.7l24.1,20.6ZM220.9,576.7c1.2,3.1,12.5,18.1,16.8,23.3.6.7,1.1,1.3,1.5,2,1.9,2.5,2.3,2.8,3.1,2.8s.8,0,1.3-.2c2.8-1.3,17.4-12.1,20.5-14.8,3-2.7,3.2-2.9.6-7.1-4.2-6.6-12.4-18.3-17.1-23.2-1.2-1.3-2.2-2-2.7-2s-1.3.2-3,1.1c-4.3,2.4-14.4,10-18.3,13.4-2.9,2.6-3,3.1-2.7,4.7ZM487.7,597.9c-1.2,1.4-2.9,3.4-4.5,5.4l4.5-5.4s0,0,0,0ZM473.9,563.8c3.5.8,8.1,2,13.9,3.4,6.3,1.6,15.4,3.9,19.4,4.6.1-.3.3-.5.4-.8l-.4-.5-32.9-7.5c-.2.2-.3.5-.5.7ZM521.7,549.8s0,0,0,0l-2.5-3.3-8.2.2c-2,0-6.1-1-14.4-3-2.8-.7-6.2-1.5-8.4-2-.2.2-.3.5-.4.7l33.8,7.4ZM183.9,517.2c.2.5.5,1.1.8,1.6,1.2-.6,2.6-1.5,3.8-2.3,4.6-2.9,7.6-4.7,10.4-4.8.2,0,.4,0,.6,0,.7,0,1.5,0,2.2.2l-.4-.4c-2.8-2.8-1.3-6.3,1.6-13.3,1-2.4,2.7-6.4,2.9-7.9-.1-.3-.3-.7-.6-1.2-1,2.7-2,5.3-3.1,7.9-1.5,3.7-3,7.5-4.2,11.2l-.4,1.1-.8.8c-1.2,1.1-3.3,2.2-8.1,4.7-1.4.7-3.3,1.7-4.8,2.5ZM217.4,515.4c.8.2,1.7.4,2.5.6,0,0,0-.1,0-.2l-2.4-.5ZM542.3,478.2c3.3,0,7,2,11,4,1.2.6,2.7,1.4,3.9,2,.2-.6.5-1.2.7-1.8-1.6-.7-3.9-1.7-5.4-2.3-4.4-1.8-6.9-2.9-8.3-3.9l-1-.7s-1.2-2.8-1.5-3.6c.4,1.9.1,3.3-1,4.7l-.9,1.1-17,4.3-.8,1.7,19.1-5.4h.4c.3,0,.5,0,.8,0ZM162.3,474.3c.2.4.4.8.6,1.3,3.5-1.4,7-3.1,10.6-4.8,5-2.4,10.1-4.9,15.5-6.7l3.4-1.2c-.9-2.1-1.9-4.2-2.8-6.2.5,1.8.3,3.2-.5,4.6l-.7,1.1-26.1,12.1ZM534.4,456.2c.6,1.5,2,4.3,3,6.2.4.8.8,1.5,1.1,2.2-1.3-3-2.6-6.1-3.9-9.1-.1.2-.2.5-.3.7ZM555.1,404.1c-.2.3-.7,1.2-1.7,3.4-3.4,8-8.8,21.7-10,27.3-.6,2.9-.5,3,.9,4.1,2.5,1.6,21.2,8.7,24.2,9.3.6.1,1.7.2,2.7.2s.4,0,.6,0c1.6-1.6,3.9-8.2,4.7-10.4.3-.9.6-1.6.8-2.2.4-1.1.9-2.4,1.4-3.6,1.8-4.5,3.8-9.7,4.8-13.4v-.2c1.1-4.2.9-4.6-.1-5.3-2.5-1.6-22.3-9-25.5-9.4-.4,0-.8,0-1.1,0-.6,0-1.4,0-1.8.4ZM148.2,440.9l29.9-11.5c-.1-.3-.2-.5-.3-.8l-30,11.3.4,1ZM137.2,411.9c1.2,2.4,2,2.4,2.6,2.4,1.3,0,3.2-.7,5.3-1.3,0,0,0,0,.1,0,0-.5,0-.9,0-1.3-1.2.4-2.5.6-4,.6s-.7,0-1.1,0l-2.9-.3ZM129,384.9c0,.6,0,1.3.2,2.4.5,3.5,5.7,19.2,7.8,23.9l-8-26.3ZM162.6,407.2c1.6-.5,3.4-1.2,4.1-1.6.9-.6,1.4-1.2.3-5.9,0-.3-.1-.6-.2-.9.6,2.8.3,4.1-.9,5.5l-.8.9-3,1.1c.2.3.3.7.5,1ZM160.2,379.3c.5,1.3,2.4,6.3,4,11,.5,1.6,1,3,1.4,4.2-1.7-5.4-3.9-11.6-5-14.6l-.2-.4c-.7-1.8-1.1-2.9-1.6-3.6l1.4,3.4ZM593.7,386.7l.2-.8c-.6-.2-1.3-.3-1.8-.4-7-1.7-10.2-2.5-11.2-5.7-.8-2.6,2.1-9.6,2.8-10.6l.5-.6,16.9-9.9.3-1.2-11.9,8-2.6-3.5c-1.4-1.9-1-4-.7-5.9.6-3.2.4-4-.5-4.6-1.7-1.1-10.4-3.3-13.7-3.3s-.1,0-.2,0c-1.1.2-2.1,3.3-2.7,5-1.8,5.5-3.1,11.4-4.5,17.1-.6,2.7-1.3,5.5-2,8.2l30.8,8.1ZM157,374.8c-3,0-18.9,5.3-24.3,7.5-2.7,1.1-3.6,1.5-3.8,2.6l29.5-9.4c-.4-.5-.9-.7-1.5-.7ZM575.9,323.8c3.4.5,8.3,1.3,14.7,2.5,6,1.1,13.1,2.3,17.1,2.8,0-.5.2-.9.2-1.4l-20.4-3.7h0s-11.4-1.4-11.4-1.4c0,.4-.1.8-.2,1.3ZM592.3,319.4l19.7-18.4.3-2c-.6.6-1.2,1.2-1.8,1.7-1.5,1.4-2.9,2.8-4.4,4.2-.7.6-1.8,1.8-2.9,3-3,3.3-4.9,5.3-6.6,6.3-.5.4-1.7,1.2-3.4,1.2s-1.1,0-1.7-.3c-1-.3-1.7-.6-2.9-2.2l3.5,6.5ZM581.8,300.1c-.5-.9-1-1.9-1.5-2.9,0,0,0,.1,0,.2l1.5,2.7ZM107,253.3l20.3-9.4c14.1-7.8,15.6-27.1,15.7-32.9.2-10-1.4-17.3-4.6-20.6-1.3-1.4-2.9-2-5.1-2s-2.4.2-3.7.5l-22.6,10.3v54ZM598.2,246.3v-44.6c0-2.9,2.3-5.1,5.3-5.1s1.5.1,2.3.4c2.3.7,4.7,2.1,7.1,3.4.6.3,1.2.7,1.8,1v-3.5c-3.2-1.4-6.3-2.9-9.4-4.3-5.2-2.4-10.6-4.9-15.9-7.2-.7-.3-1.4-.6-2.1-.9-2-.9-4.1-1.8-6.1-2.5v3.5c1.4.6,3.3,1.3,4.7,1.9,8,3.1,10.5,4.2,11.5,7l.2.7v50.1c.2,0,.4.1.6.2ZM566.2,232v-21.2c-.1.8-.5,1.8-1.3,2.6-1,1-2.3,1.6-3.8,1.6s-.9,0-1.4-.2l-2-.4-27-48.7v23.3c.4-5.4,3.3-6.4,5.1-6.6l2.9-.3,27.5,49.8ZM163,230.2c3.3-1.1,6.6-2.2,9.8-3.4,3.5-1.2,7.1-2.4,10.6-3.6.5-.1,1.4-.4,2.5-.7,1.6-.4,5.6-1.5,8-2.4v-3.8l-29.5,8.5v-22.8l17-5.2v-3.4c-.9.3-1.8.7-2.5,1-3.4,1.4-6.9,2.9-9.9,2.9h-4.6c0,0,0-19.4,0-19.4l2.6-1.2c1.3-.6,4.6-1.6,10.7-3.4,4.5-1.3,12.1-3.6,15.6-4.9v-3.1c-2.5.6-5,1.5-7.5,2.3-.8.2-1.5.5-2.2.7-5.6,1.8-11.3,3.8-16.8,5.8-1.3.5-2.6.9-3.9,1.4v54.6ZM531.1,221.2c0-2.8-.2-5.7-.3-8.5,0-.9,0-1.9-.1-2.9v11.2c.1,0,.3,0,.4.1ZM510.2,215.5v-4.6l-30-7.7v-22.2l17,3.5v-3.4c-.9-.2-1.9-.4-2.9-.6-3.7-.8-7.6-1.5-11.3-3l-2.8-1.1v-20.4l29.5,6.5v-3c-3.9-1.3-8.1-2.3-12.2-3.2-.9-.2-1.8-.4-2.7-.6-5.7-1.3-10.7-2.5-15.6-3.3v56.2l31,7.2ZM214.5,214.4l1-.2v-24c.1,0,3.3-1,3.3-1,4.3-1.3,8.7-2.2,12.9-3.1,4.4-.9,8.6-1.8,12.7-3.1,2.1-1.5,2.9-3.5,3.2-7.5.5-7.7.2-19.5-.9-21.7-.6-1.2-.8-1.2-1.5-1.2s-1.7.2-2.8.3h-.7c-5.6,1-11.4,2.5-17,4.1-3.3.9-6.7,1.8-10.1,2.6v54.8ZM565.8,176.9c0,3.1,0,6.2-.1,9.2,0,6.1-.2,12.3,0,18.4,0,.2,0,.6.2,1.1.1.6.3,1.4.3,2.2v-30.7c-.1,0-.3-.1-.4-.2ZM256.4,205.4c.1,0,.2,0,.3,0,.4-1.2.9-3,1.2-4.4.4-1.6.8-2.9,1.1-4.1l-2.7,8.5ZM455.8,203.7v-55.9h0c-.4,0-.8-.2-1.3-.3l-19.7,39.3-20.2-44.4c-.2,0-.5,0-.9,0v.2l20.9,47.3,11.5-24.1,9.1-5.2v43c.2,0,.3,0,.5.1ZM287.4,187.1c3.7.7,4.9,4.5,6.7,10.3.2.7.5,1.5.7,2.3.6,0,1.4,0,2.1,0l-18.8-53.1c-1.3.1-2.6.3-3.5.5l-15.1,48.3c.4-1.2.8-2,1.2-2.7l1.1-1.7,24.8-3.9h.8ZM315.3,197.9c.6,0,1.1,0,1.6-.1,0-2.1,0-5.1,0-7.3-.2-11.5-.3-14.2,2.4-16.1,1-.7,1.9-1.1,6.7-1.1s4,.2,5.1.8l.9.5,14.5,21.8c1,0,2.4,0,4.2,0h0c-1.5-2-3.2-4-4.8-5.9-2.7-3.2-5.5-6.5-7.6-9.8l-.5-.7-1.3-7.7h5.4c0,0,.7,0,.7,0,5,0,5.4-.8,6.1-3.2,1.1-3.9,1-22.8-.1-25.9-.5-1.2-1.6-2.3-2.5-2.4-1.6-.1-3.2-.2-5.1-.2-4.5,0-9.2.4-13.7.8-1.5.1-3,.3-4.4.4-.5,0-1.3,0-2.7,0-1.1,0-3.5,0-5.4.2l.4,55.7ZM380.8,196.4v-46.2c0-3,3.2-5.2,4.9-5.5h.6c0-.1.6,0,.6,0,1.6,0,3.3.3,5,.4,1.9.2,3.7.4,5.3.4h.2c.2,0,.5,0,.9,0v-4.3c-7.1-.4-14.4-.5-21.4-.6-2.5,0-4.9,0-7.4-.1-1.4,0-2.8-.2-4.1-.3-1.2-.1-2.4-.3-3.5-.3v4.6h17.5v52h1.5ZM108.7,173.7s.1,0,.2,0c.3,0,.7,0,1.5-.3,3.8-1.1,23.4-10.4,27-12.7,1.6-1.1,3.1-2.8,3.6-4.4.1-.4.8-2.7,1-3.7v-9.3s-1.6,0-1.6,0c0,.9,0,1.8,0,2.6.2,5,.3,8.6-2.2,10.7l-.5.4-21.1,9.7c-.7.3-1.4.5-2.2.5-2.5,0-5.5-2.3-5.5-5.2v-33.3c-.5-1.1-.5-2.2-.4-2.9l.2-1.4,2.3-2.4,28.8-12.7v10.1c.7-.5,1.3-.9,1.7-1.2,0-1.1-.1-2.3-.2-3.7,0-2.2-.3-6.7-.8-8.3,0,0,0,0-.2,0-.3,0-.6,0-.9,0-3.7.7-25,10.7-27.9,12.9-2.5,1.8-3.9,4.9-4.3,9.2-.8,10-.6,26.8,0,37.4v.9c.2,2,.4,6,1.2,6.9ZM615,169.3c.2-5.1-.1-10.9-.4-16.6-.2-3.7-.4-7.2-.4-10.4,0-1.1,0-3.5,0-6.4,0-5.3.2-16.8,0-21.2-.1,0-.2-.1-.4-.2l.5,35.2-7.9,2-1.6-3.2c-8.5-16.3-17.7-32.6-26.7-48.4l-.7-1.3.5,53.9h.4c0-2.8,0-5.8,0-8.8,0-5.3.1-10.8,0-16.2,0-.2,0-.7-.2-1.1-.2-.8-.4-1.7-.4-2.9-.1-6.2,3.3-7.5,4.7-7.8l3.2-.6,29.4,53.8h0ZM161,102.8c.4,6.7.2,13.6,0,20.3-.2,7.1-.5,14.5,0,21.2.3,3.8.9,5.8,1.9,5.8s.6,0,1.2-.2c5.6-2.3,11.4-4.2,17.1-6,4.4-1.4,8.9-2.8,13.2-4.5,6-2.3,7.2-3.7,7.7-9.6.6-7.8.2-16.3-.2-24.6-.1-2.3-.2-4.6-.3-6.9,0-1.3,0-2.8,0-4.3,0-3.1.2-8.4-1.1-9.7,0,0-.3-.3-1.3-.3s-.5,0-.7,0c-4.9.5-26.5,8.3-31.9,11.1-3.4,1.7-4.9,3.8-5.4,7.7ZM518.5,78.5c-1.2,0-1.4.4-1.7,1.1-.4,1.1-1.6,7.1-.6,35.5v1.5c.2,3.7.3,9.2,1,11.8.2,1,1.2,2.9,1.6,3.4,1.8,2.1,9.8,4.2,14.1,5.3,1.9.5,3.7,1,5.1,1.4,2.1.7,4.3,1.5,6.3,2.2,3.2,1.2,6.5,2.4,9.5,3.1.8.2,1.5.3,2.1.3s.6,0,.6,0c0,0,.5-.6.7-2.8,1.1-9.9.6-28.6,0-38.8-.6-10.1-1.3-11.9-9.2-15-7.9-3.1-22.7-8-28.8-8.9-.3,0-.5,0-.7,0ZM221.8,77c0,1.7.3,4.2.4,5.4.1,1.3.2,2.4.3,3.1.1,6.2,0,12.7-.2,19-.2,8.8-.4,17.9.1,26.3,0,0,0,.2,0,.3l1.9-.5v-20.1s.1-.5.1-.5c.7-2.8,3-3.5,6.3-4.5,3.7-1.1,4.5-1.2,4.9-1.2h.1c2.9,0,4.4,1.5,14.9,14.6,1.3,1.6,2.7,3.4,3.7,4.6,1.5-.1,3.6-.5,5.6-.8-1.5-1.6-3.4-3.3-5.2-4.9-2.7-2.5-5.3-4.8-7.2-7.1-2.7-3.3-3-6-.9-8.1l.9-.9,2-.4c4.7-1,6.6-1.6,7.7-4,1.3-2.9,1.5-14.9,1-21.3-.5-6.7-2.3-6.7-3.7-6.7s-.6,0-1,0c-4.9.6-11.5,2.3-17.3,3.8-1.6.4-3.2.8-4.6,1.2-.3,0-.9.2-1.6.4-4,.9-6.8,1.7-8.5,2.2ZM494.2,126.9c.7.2,1.4.3,2.1.5,0-.8-.2-1.7-.3-2.6-.2-1.3-.3-2.6-.3-3.9-.1-5.7,0-12,.3-18.6.4-10.5.7-21.3-.3-29.8-.4,0-.8-.1-1.2-.2l-.3,54.7ZM458.2,119.3c.6.1,1.3.2,2,.3l-.5-47.5,1.4-1.3c.9-.9,2.2-1.4,3.7-1.4s4.5.6,8.9,1.5c1.3.3,3,.7,4.5.9,0-.6-.1-1.3-.2-1.8,0-.7-.2-1.4-.2-2.1-.9-.2-1.8-.4-2.7-.5-3.3-.7-6.6-1.4-9.9-1.9-1.3-.2-2.6-.5-4-.7-7.1-1.2-15.7-2.7-22.3-3.2,0,.6.2,1.3.2,2,0,.7.2,1.4.3,2.1,1.8.2,4.1.5,5.7.7,3.4.4,5.3.6,6.3.8.1,0,.2,0,.4,0,1.3.2,4.6.7,5.8,4l.2.7.5,47.3ZM279.1,119.5c.6-.1,1.2-.2,1.7-.3l-.3-19.3.3-.6c.2-.8.6-2.5,2.3-3.5,2-1.2,8.4-1.3,8.5-1.3,1.5,0,3.1.2,4.5,1.2l.4.3,15.3,19.5c1.1,0,2.6-.3,3.8-.5.1,0,.3,0,.4,0l-18.7-21.4,8.7-.9c6.3-.6,7.8-1.4,8.5-4.4.9-3.7.8-21.1-.2-24.2-.3-.8-.8-2.2-2-2.6,0,0-.6-.2-2.6-.2-4.8,0-12.6,1.1-16.7,1.7l-1.6.2c-2.6.4-5.2.8-7.7,1.3-1.5.3-3.1.5-4.7.8l.2,54.4ZM420.6,115c2,0,2.6-.6,2.8-.8,1.8-1.9,1.6-7.7,1.4-11.9,0-.8,0-1.7,0-2.5-.6-.2-1.2-.5-1.9-.8v11.8l-32.4-2.1v-4.2c-.1-3.9-.2-7.9-.3-11.8-.2-8.4-.4-17.2-.2-25.9v-4.2c0,0,4.3-.2,4.3-.2,1.1,0,2.2,0,3.4,0,6.2,0,12.2.7,18.1,1.3l6.6.7v10.8c.7-.1,1.5-.2,2.2-.4,0-.5-.1-1-.2-1.5,0-.7,0-1.3,0-2-.2-8.5-.8-10.7-5.8-11.4-6-.8-14.6-1.4-21.4-1.5h-.6c-.7,0-1.5,0-2.2,0-5.4,0-5.8,1-6.2,3.4-.5,2.6-.4,4.9-.2,7.6,0,1.2.1,2.5.1,3.9,0,3.5,0,7.2-.2,10.8-.2,7-.4,14.2.1,20.4.5,6.3,2,7.9,4.1,8.5,3.6.9,8.3,1,13.3,1,5.1,0,10.3,0,15,1.1.1,0,.3,0,.4,0ZM335.1,58.8c0,11.9.2,23.9.4,35.6.1,6.2.2,12.6.3,18.9l34.5-1.4v-3.4h-32.5v-22.5h18.5v-3.5h-19v-15.7c0-5.3,6.3-5.3,9.7-5.3s2.6,0,3.7,0c.6,0,1.2,0,1.6,0h.1c.2,0,.6,0,.9-.2.7-.2,1.6-.3,2.6-.4,1.3,0,2.6,0,3.9,0s3.6,0,5.4,0c1.4,0,2.7,0,4.1,0v-3.3c-.8,0-1.7,0-2.7,0-2.9,0-6.1.2-9.1.4-2.3.2-4.6.3-6.8.4-.6,0-1.7,0-3.3,0-2.5,0-8.6,0-12.4.2Z"/>
    <path class="st4" d="M352.6,24.9c99.9,0,201.2,26.9,285.4,75,2.6,1.5,5.4,2.8,7.7,4.8.5,7.5.3,6.2.5,8.5,14.2,184.8-53.4,395.7-177.1,533.7-31.5,35.2-70.6,67.2-107.9,96.2-11.5-9.2-21.6-18.3-32.8-27.8-35.1-29.7-68.7-63-97.4-99C124.8,483.2,65.5,285.2,77.6,115.2c.2-3.1.6-7.1,1.3-11.7,32.6-18.8,66.2-36.2,101.6-49.3,54.4-20,113-29.4,172.1-29.4M331.4,118l43.5-1.8v-11.5c0,0-.7-.7-.7-.7h-31.7v-13.5h14.7c.6,0,3.3-.7,3.7-1.2v-11.2h-19v-11.2c0-.7,2.6-.8,5.2-.8,2.1,0,4.3,0,5.2,0s.2,0,.3,0c1.2,0,2.3-.5,3.5-.5,1.3,0,2.5,0,3.8,0,3.6,0,7.1.1,10.7.1s2.2,0,3.3,0v-11.2c0-.5-1.2-.7-1.7-.8-1.8-.2-3.6-.3-5.4-.3-5.4,0-10.9.7-16,.8-2.6,0-19.3-.2-20,.9-.2,21,.6,42,.8,63M420.6,119.5c11.5,0,8.4-14.2,8.6-22.2-.4-1.1-9.2-4.1-10.9-4.8v13.5l-23.5-1.5c-.2-12.5-.8-24.9-.5-37.5,1.1,0,2.1,0,3.2,0,6.8,0,13.5.8,20.3,1.6v10.7c0,.6.8.7,1.9.7,2.9,0,8.1-1.3,9.2-1.3,0,0,0,0,0,0,1.1-1.9,0-3.7,0-5.5-.2-8,.5-16.3-9.8-17.7-6.5-.8-15.4-1.4-21.9-1.6-1,0-2,0-2.9,0-5.1,0-9.5.7-10.6,7-.8,4.5-.2,8.1-.2,12.2,0,10-.8,21.7,0,31.5.4,5.4,1.6,11,7.5,12.5,8.2,2.1,20.1.2,28.7,2.3.4,0,.7,0,1.1,0M276.2,124.4c2.6,0,7.7-1.4,9.2-1.5l-.3-22.1c.2-.3.2-1.2.4-1.3.2-.2,3.9-.7,6.1-.7.8,0,1.4,0,1.6.2l16.1,20.6c.4.2.9.2,1.6.2,2.3,0,5.9-.8,7.6-1,.3,0,.5,0,.8,0,.8,0,1.6,0,2.3,0,1.6,0,2.7-.4,1.3-2.9l-16.6-19.1c5.9-.6,10.8-1.3,12.5-7.8,1.1-4.2,1-22.6-.2-26.7-.8-2.5-2.4-4.7-5-5.5-.9-.3-2.3-.4-3.9-.4-5.8,0-15.1,1.5-19,2-5.4.8-10.9,1.9-16.3,2.7l.2,62.8c.2.3.8.4,1.5.4M464.2,124.5c.3,0,.5,0,.6,0l-.5-50.5c0,0,.3-.1.6-.1,2.7,0,13.5,3,16.4,3s.4,0,.6,0c2.4-1.1,0-9.1.5-11.5l-.5-1c-5.3-1-10.6-2.2-15.9-3.1-8.6-1.5-21-3.8-29.4-4.1-.2,0-.4,0-.6,0-1.2,0-1.5.3-1.6,1.8-.4,3.5.9,7.2.6,10.7.4.7,13.4,1.7,15.5,2.2.9.2,2.5.2,2.8,1.2l.5,49.8c.2.7,8.1,1.9,10.4,1.9M218.9,136.7l10-2.3v-23.1c.1-.4,6.3-2.2,6.9-2.2,0,0,0,0,0,0,1.7,0,14.4,16.9,16.6,19.1.1,0,.4,0,.8,0,3.1,0,13.3-1.8,13.7-2.4.4-.5,0-1.7-.4-2.2-3-4.9-11.4-10.9-15.3-15.7-.3-.3-1.4-1.9-1.2-2,4.8-1,9.3-1.7,11.6-6.7,2-4.4,1.8-18.3,1.4-23.6-.5-5.7-2.1-10.8-8.1-10.8-.5,0-1,0-1.6.1-6.6.8-15.7,3.4-22.4,5.1-2,.5-12.1,2.8-12.9,3.6-1.4,1.4,0,9.7,0,12,.3,14.9-1,30.9,0,45.5,0,.9.6,5.2,1,5.5M499.8,132.4c.2,0,.3,0,.3,0,1.5-3.7.1-8,0-11.7-.3-14.9,1.7-34.8,0-48.9,0-.7-.4-2.7-.9-3.1-1.2-.9-7.4-1.2-9.2-2.2l-.3,63.6c.1.5,8.2,2.3,10.1,2.3M555.9,148.6c3.5,0,5.3-2.1,5.8-6.9,1.1-10.1.6-29,0-39.5-.6-10.9-1.7-14.9-12-18.9-7-2.7-22.8-8.2-29.8-9.1-.5,0-.9,0-1.4,0-2.7,0-4.9,1.3-5.9,4.1-1.9,5.6-1.1,29.8-.9,37.2.1,3.9.2,10.8,1.2,14.3.4,1.4,1.6,4.1,2.5,5.2,3.6,4.1,15.6,6.3,21.2,8,5.2,1.7,10.8,4.1,16.1,5.4,1.2.3,2.2.4,3.2.4M162.9,154.6c.8,0,1.7-.1,2.6-.4,9.9-4.2,20.4-6.7,30.4-10.5,7.2-2.8,9.9-5.3,10.5-13.5.8-10.3-.1-21.7-.5-32-.3-6.5,2.1-18.7-6.9-18.7-.4,0-.8,0-1.2,0-5.7.6-27.9,8.7-33.5,11.5-5,2.5-7.3,6-7.9,11.6.8,13.7-1.1,28.5,0,42,.4,5,1.5,9.9,6.4,9.9M582.7,159.4c-.2-10.6.2-21.2,0-31.7,0-1.3-.5-2.6-.6-4,0-.8,0-3.1,1-3.2l28.5,52.1c1.4.6,4.2,2.8,6,2.8s1.4-.4,1.5-1.7c1.1-9.3-.4-21.9-.5-31.5,0-4.3.6-28.8-.4-30.4-.3-.5-7.6-3.9-8.9-3.9,0,0-.1,0-.2,0l.5,38.2-1,.3c-9.1-17.5-18.9-34.7-28.7-51.8-1-.4-5.7-2.7-7-2.7s-.2,0-.3,0l.6,63.9,9.4,3.6M108.9,178.2c.8,0,1.7-.1,2.7-.4,4.3-1.2,24.4-10.8,28.2-13.3,2.3-1.5,4.5-4,5.4-6.6.2-.5,1.3-4.5,1.3-4.7v-14c0-.2-.7-.7-1.1-.7s0,0-.1,0c-.8.4-2.1.5-3.3.5s-1.2,0-1.7,0c-1.5,0-2.9,0-3.7.8-1.5,1.3.5,12.2-1.1,13.6l-20.7,9.5c0,0-.1,0-.2,0-.4,0-1-.6-1-.7v-34.5c0-.1-.5-.5-.4-.9l.7-.8,21.7-9.6v11c.1,0,.2,0,.3,0,.6,0,.9-.4,1.3-.6,1.3-.7,7.1-4.5,8-5.5.6-.5,1.1-.9,1.2-1.8-.6-3.8,0-13.8-2.4-16.4-1-1.1-2.2-1.3-3.4-1.3-.4,0-.9,0-1.3,0-3.6.3-26.8,11.3-30.2,13.8-4,3-5.6,7.6-6,12.4-.9,10.4-.7,27.4,0,38,.3,5.4.4,12,5.9,12M357.3,148.9h17.5v51.2c0,0,.7.7.7.7h9.7v-50.7c0-.1,1-1.1,1.3-1.1,3.3.2,7.1.8,10.4.9.4,0,1.2,0,2.1,0,1.7,0,3.7-.1,3.7-.8v-11.5c0-.3-.8-.8-1.2-.8s0,0,0,0c-10.7-.8-21.3-.8-32-1-2.6,0-5.3-.6-8.1-.6s-2.8.2-4.1.6v13M313.7,202.4c2.5,0,5-.1,7.4-1,.8-3.1-.6-22.4.7-23.3.3-.2,2.3-.3,4.1-.3s2.6,0,2.8.2l15.1,22.6c.6.3,3.9.4,6.8.4s3.8,0,4.4-.1c1.9-.2,3.3-.7,2.2-2.7-3.7-6.5-11.1-13.3-15.1-19.8l-.3-1.5c.3,0,.5,0,.8,0,5.2,0,8.8-.8,10.4-6.5,1.3-4.4,1.4-24.6-.2-28.8-1-2.6-3.4-5-6.2-5.2-1.8-.2-3.6-.2-5.5-.2-6.2,0-12.6.8-18.5,1.3-1.7.1-11.6,0-12.2,1.1l.4,63.9c.9,0,1.9,0,2.8,0M410.2,138c-.3,0-.6,0-.9,0v64.5l9,.5v-39l14.8,33.5h3.1c0-.1,13.4-28.4,13.4-28.4l1.1-.6v39c2.5.2,5.2,1.2,7.7,1.2s1.2,0,1.8-.2v-64.5c-.1,0-.3,0-.5,0-1.7,0-4.6-1.1-6.6-1.1s-1.4.2-1.7.6l-16.5,33-17-37.5c-.7-.9-2.6-1.1-4.4-1.1s-2.4,0-3.4,0M250.2,210.9c1.7,0,9.3-1.5,9.7-1.8,1.2-.9,3.3-12.1,4.6-14.1l22.1-3.5c1.8.3,3.9,10.9,5.4,12.8,2-.3,10.3,0,10.9-1.7l-21.5-60.6c-.3,0-.9,0-1.5,0-2.9,0-8.2.7-8.9,1.9l-21.1,67.1s.1,0,.3,0M513.2,220.8c.6,0,1.5-1,1.5-1.2v-12.2l-30-7.7v-13.2l17,3.5v-12.5c-5.6-1.5-11.7-2.1-17-4.2v-11.7l29.5,6.5v-11.7c-5.8-2.3-12.2-3.7-18.4-5.1-6.9-1.6-14-3.3-21.1-4.1v65l38.3,8.9s0,0,.1,0M210,219.9l9.9-2v-24.4c8.8-2.6,17.8-3.7,26.4-6.5,4.2-2.7,5.4-6.5,5.7-11.3.3-4.9.6-20.4-1.4-24.1-1.5-2.8-3.3-3.5-5.4-3.5-1.3,0-2.7.3-4.3.5-10.3,1.6-20.7,5.3-30.9,7.3v64M535.3,227c.2,0,.4,0,.4-.1,0-12.1-1.3-25.1-.5-37.2,0-.7,0-2.6,1-2.7l27.3,49.4c.5.8,4.3,2.4,6.2,2.4s1-.2,1-.6v-64.2c-1.7-.2-6.6-3-8.4-3s-.2,0-.3,0c-.4.1-.6.4-.7.8.1,11-.4,22,0,32.9,0,1.3.5,2.5.5,4,0,.9.3,1.8-.6,1.8s-.3,0-.5,0l-27-48.7c-.7-.8-5.8-2.4-7.1-2.4s-.3,0-.3,0v65c1.4.1,7.3,2.6,9.1,2.6M158.5,236.4c8.9-2.7,17.6-6,26.4-8.9,2-.6,13.6-3.5,13.6-4.9v-12.2l-29.5,8.5v-13.5l15.9-4.8c.5,0,1.1-1.1,1.1-1.4v-10.5c0-.3-.7-.7-1.1-.7,0,0,0,0,0,0-3.8,0-11.5,4.9-15.8,4.9v-12c3-1.4,29-8.2,29-9.7v-11.2c-5.1.6-10.6,2.6-15.6,4.1-8,2.5-15.9,5.5-23.9,8.3v64M602.7,252.4v-50.7c0-.5.4-.6.8-.6.4,0,.8.1,1.1.2,3.6,1,8.9,5.2,12.5,6.1.2,0,.4,0,.7,0,.7,0,1.4-.2,1.4-.7v-11.7c-9.4-4.1-18.6-8.7-28-12.7-4.7-2-9.6-4.3-14.5-5.3v12.2c2.1,1.7,15.9,6,16.4,7.6v51.4c0,.7.4.8.9,1.2,2,1.3,6.2,2.5,8.7,3.1M102.5,260.4l26.8-12.4c12.9-7,17.9-22.8,18.2-36.8.2-11.2-1.6-27.2-14.2-27.2-1.6,0-3.3.2-5.2.8l-25.6,11.7v64M361.2,658.1c13.4-12,27.5-24.2,39.9-37.2,73.6-77.7,119.5-161.2,146.4-265.1,6.4-24.9,12.6-52.7,15.7-78.3.3-2.6,1.6-12.5.8-14.2-.5-1.1-19.9-9.5-22.8-10.7-57.3-24.1-117.1-36.5-177.5-36.5-37.1,0-74.4,4.7-111.6,14.2-32.8,8.4-64.5,20.7-94.9,35.5-.9.7-.8,1.8-.8,2.8.1,7.1,1.6,17.2,2.6,24.4,8.2,62,32.3,128.9,60.2,184.6,34.4,68.8,84.6,129.7,141.9,180.5M587.2,319.3l-14.5-1.8c-.6.5-1.9,9.9-1.5,10.3,0,0,.1,0,.2,0,5,0,33.2,5.9,38.9,5.9s.8,0,.9-.1c.5-.4,2-9.1,1.4-9.7l-15.4-2.8,19.1-17.9,2.4-15.4s0,0,0,0c-.6,0-3.3,2.3-3.7,2.7-3.9,3.5-7.8,7.4-11.7,11.1-2.1,2-6.7,7.6-8.7,8.8-.4.2-.6.5-1.1.5s-.2,0-.4,0c-1.4-.4-11.9-22.8-13.9-25.6l-1.4-.8c-.5,4.7-1.9,9.4-1.9,14.1l11.4,20.8M597.1,392.3l2-9.5c-2-1.1-13.5-3-13.9-4.3-.1-.4,1.6-5.9,2-6.4l17.8-10.4,3.6-13.4-2,.3-16,10.7c-.9-1.2,2.9-8-2.3-11.5-2.4-1.6-12.3-4.1-16.2-4.1s-.6,0-.8,0c-3.9.6-5.3,4.9-6.4,8.1-3.1,9.7-4.9,20.1-7.6,29.9l39.8,10.5M139.9,418.9c3,0,6.4-1.6,10.1-2.6-.1-1.5-.3-10.4-1.2-10.4-2.5.6-4.9,2-7.5,2s-.4,0-.6,0l-6-19.9,21.5-6.8c1,2.4,7.1,19.4,6.4,20.3l-6.5,2.3c.6,1.2,3.7,8.4,4.1,8.6,0,0,.2,0,.4,0,1.8,0,7.4-2.1,8.4-2.8,4.1-2.6,3.3-6.7,2.4-10.8-1.3-5.7-4.5-14.7-6.6-20.4-1.4-3.8-2.7-7.8-7.5-8,0,0-.1,0-.2,0-4.1,0-21.7,6.1-26,7.8-5.2,2.1-7.2,3.8-6.4,9.8.6,4.4,6.3,21.3,8.3,25.6,1.9,4.1,4.2,5.3,6.9,5.3M571.3,452.8c.8,0,1.6,0,2.1-.2,3.7-1.1,6.9-11.7,8.2-15.3,2-5.2,5.1-12.4,6.4-17.6,1-3.9,1.9-7.5-1.8-10.2-2.6-1.9-24.4-10-27.7-10.3-.5,0-1,0-1.6,0-1.8,0-3.6.4-5,1.7-.9.9-2,3.4-2.5,4.7-2.9,6.6-8.9,21.6-10.3,28.2-.8,3.9-.7,6.2,2.7,8.6,2.5,1.8,22.4,9.4,25.9,10.1.9.2,2.3.3,3.6.3M145.6,446.7l37.9-14.5c.8-1.3-2.8-7.5-3-9.4l-38.4,14.5,3.5,9.4M160.8,481.2c10.1-3.6,19.5-9.4,29.6-12.9l6.3,14c.5.4.9.6,1.4.6,1.4,0,2.8-1.4,4.1-1.6.1,0,.3,0,.4,0,.4,0,.6.2.4.8-2.5,8.3-6.5,16.4-9.2,24.7-1.8,1.7-14.7,7.4-15.2,8.8-.3.9,3.6,8.3,4,8.6.2.1.4.2.6.2.4,0,.9-.2,1.3-.4,3.7-1.3,11.5-7.5,14.8-7.7,0,0,.2,0,.3,0,1.3,0,3.3.5,4.5.7,8,1.4,15.8,4.3,23.9,5.4.6-.7-4.6-8.8-5.1-10.3l-18.3-3.6c-1.3-1.3,6.5-15.4,5.9-18.6-.4-2.2-4.7-8.8-6-11.5-6-12.6-11.6-25.5-17.5-38.3,0,0,0,0-.2,0-1.3,0-7.6,3.2-7.7,3.8.3,2.4,7,13.9,6.2,15.2l-28.1,13c-1.1,1.5,2.7,7.9,3.6,9.5M513.7,490.7l28.2-8c.1,0,.2,0,.4,0,4.2,0,12.8,6.6,16.3,6.6s.2,0,.3,0c.5,0,.7-.2,1-.5.7-.8,3.6-7.6,3-8.5-.9-1.5-13.9-6-16.1-7.6-3.6-8.5-7-17-10.9-25.4-.2-.5-.2-1.4-.3-1.5,0,0-.2-.1-.4-.1-.4,0-1,.2-1.3.6-.3.4-4.2,9.2-4.2,9.7,0,2.7,8.6,16.3,7.4,17.7l-17.6,4.5-5.8,12.5M511.1,542.2c-3.3,0-21.9-5.3-24.6-5.3s-.2,0-.3,0c-.3.2-3.9,5.5-3.4,6.4l14.4,20.4-24.2-5.5c-1.5.2-6.3,8.5-5.8,9,4.9.2,36.8,9.5,41.8,9.5s.5,0,.6,0c.3-.2,3.6-5.5,2.9-6.4l-14.8-21,25.2,5.5c1.8-.2,3.2-3.9,4.2-5.3l-26.1-34.6c-.6.1-4.9,6.8-4.7,7.6l14.9,19.9s0,0,0,0M242.4,609.3c.8,0,1.6-.1,2.6-.4,2.6-.7,19.4-13.3,22.2-15.8,5.1-4.5,5-7.2,1.4-12.8-4.1-6.4-12.6-18.6-17.6-23.9-2.1-2.3-3.9-3.4-6-3.4-1.5,0-3.1.6-5.1,1.7-4.6,2.5-15,10.4-19.1,13.9-3.1,2.7-5.1,4.7-4.1,9.1.7,3.4,14.6,21.3,17.7,25,2.6,3.2,4.1,6.4,8.1,6.4M468.5,627.6l25.2-29.7c0-1-5.6-5.7-6.6-5.7,0,0,0,0,0,0-1.4.3-15.6,18.8-17.8,21.2-.3.2-.6.3-.9.3-.5,0-1-.2-1.4-.4-.2-.1-3.9-3-4-3.2-.6-1.1.6-2.5,1.2-3.4,1.3-1.8,8.5-9.1,8.6-10.4-.6-1.3-5.1-5.2-6.5-5.2s0,0,0,0c-1.5,1.6-9,11.7-10.1,12,0,0,0,0-.1,0-1.2,0-5-3.1-5-4.2,0-1.4,16.2-18.6,18-21.6.1-.7-3-3.4-3.7-4-1.2-.9-1.6-1.6-2.2-1.6s-.8.3-1.6,1.1c-7.8,7.7-14.4,18.8-22.5,26.5l-1,2,30.7,26.2M260.2,634.1c.2,0,.4,0,.7-.2,1.7-1.3,8.9-8.8,10.6-8.8,0,0,0,0,0,0,1.4,1.5,8.8,11,9.9,11s0,0,0,0c.7-.1,6.4-5.2,6.3-5.6l-9.5-11.5c0-.7,5.1-5.1,5.9-5.2,0,0,0,0,0,0,1.4,0,15.8,17.9,18.1,20.2.1.1.3.2.5.2,1.8,0,6-4,6.2-4.5.4-.9-.3-1.5-.8-2.2-5.2-7.1-13.7-15.5-19.7-22.2-.7-.7-3.5-4.8-3.8-4.9-.1,0-.2,0-.4,0-1,0-2.6,1.5-3.3,2-8.5,6.9-18.4,15.6-26.2,23.2-.9.8-2.2.5-1.3,2.2.2.5,5.4,6.1,5.8,6.3.3.1.6.2.8.2M420.2,673.1c0,0,.2,0,.3,0,.6,0,6.6-4.7,6.2-6.1l-16.4-18.9h38.7c.4,0,5.2-4,4.5-5l-26.3-30h-.7s-2.5,2-2.5,2l-4.2,4.2,15.9,18.8h-37.2c-.4,0-5.1,4.1-5.2,5.2l25.9,29.6c.3.2.6.3.9.3M352.6,15.9c-62.2,0-121.1,10.1-175.2,30-31.4,11.6-64.1,27.4-103,49.9l-3.7,2.2-.6,4.3c-.6,4.3-1.1,8.4-1.4,12.4-6,84.9,5.3,177.4,32.7,267.7,27.7,91,70.1,173.9,122.6,239.8,27.3,34.2,60.4,67.9,98.6,100.2,3.8,3.2,7.6,6.5,11.3,9.7,6.9,6,14.1,12.2,21.7,18.3l5.6,4.5,5.6-4.4c37.7-29.4,77-61.6,109-97.3,61.1-68.1,110.2-155.4,142.1-252.5,31.5-95.8,44.4-195.4,37.2-287.9,0-.6,0-.8,0-1.3,0-.9,0-2.3-.4-7.2l-.3-3.8-2.9-2.5c-2.5-2.2-5.2-3.6-7.5-4.9-.5-.3-1.1-.6-1.6-.9C556.4,42.9,453.5,15.9,352.6,15.9h0ZM283.4,68.9c.3,0,.6-.1,1-.2,2.6-.5,5.1-.9,7.6-1.2.5,0,1-.1,1.6-.2,4.1-.6,11.6-1.7,16.1-1.7.1,0,.3,0,.4,0,.7,4.1.7,18.2,0,21.5,0,.1,0,.2,0,.3-1,.4-3.5.6-4.5.7l-17.3,1.7.2.3c-1.5.1-3.3.3-4.9.8v-21.9h0ZM226.5,80.4c1.3-.3,2.9-.7,4.8-1.2.7-.2,1.3-.3,1.7-.4,1.5-.4,3-.8,4.6-1.2,5.4-1.4,11.4-2.9,16-3.6.1.5.2,1.3.3,2.4.5,6.6.2,16.7-.6,19.2,0,.1,0,.2,0,.2-.5.4-3,.9-4.4,1.2h-.7c0,.1-2.6.7-2.6.7l-1.9,1.8c-.3.3-1.2,1.3-1.9,2.6-1.7-1.3-3.6-2.1-6-2.1h-.2c-.8,0-1.8,0-6.1,1.4-.8.3-1.7.5-2.6.9.1-5.6.2-11.3.1-16.8,0-1-.1-2.1-.3-3.5,0-.4-.1-1-.2-1.6h0ZM521.6,127.3c-.5-2.2-.7-7.8-.8-10.8,0-.6,0-1.1,0-1.6-.7-19.3-.3-27.8,0-31.5,6.5,1.4,18.7,5.5,25.7,8.2,2,.8,4.5,1.9,5.1,3,.8,1.5,1.1,5.8,1.2,8.1.5,9.1,1,26.2.2,36.2-2.2-.7-4.6-1.5-7.1-2.4-2.1-.8-4.3-1.6-6.5-2.3-1.5-.5-3.4-1-5.3-1.5-2.9-.8-9.6-2.5-11.7-3.9-.2-.5-.6-1.2-.7-1.5h0ZM165.5,103c.3-2.2,1.1-2.9,2.9-3.9,4.8-2.4,22-8.6,28.5-10.2,0,1.6,0,3.7,0,5.1,0,1.5,0,3.1,0,4.6,0,2.3.2,4.6.3,6.9.4,8.1.8,16.5.2,24-.2,3-.7,3.6-.8,3.7-.2.2-.9.9-4,2-4.2,1.6-8.4,3-13,4.4-4.7,1.5-9.5,3-14.3,4.9,0-.2,0-.3,0-.5-.5-6.5-.3-13.4,0-20.7.2-6.7.5-13.5,0-20.3h0ZM319.5,146.6c.4,0,.7,0,.9,0,1.5,0,2.3,0,2.9-.1,1.5-.1,2.9-.3,4.4-.4,4.5-.4,9.1-.8,13.3-.8s2.3,0,3.4,0c.8,4.6.7,19.1,0,22.6-.4,0-1,0-1.8,0s-.5,0-.7,0h-10.9c0-.1.3,1.5.3,1.5-1.6-.5-3.4-.6-5.4-.6s-4.7.1-6.3.5l-.2-22.8h0ZM267.3,185.5l9.3-29.7,9.5,26.7-1,.2-17.8,2.8h0ZM219,163.1c2.3-.6,4.5-1.2,6.8-1.8,5.7-1.5,11.2-3,16.5-3.8h.5c.5,4.1.6,12.2.2,17.6-.1,2.3-.5,3.3-.9,3.8-3.6,1.1-7.4,1.9-11.4,2.7-3.8.8-7.8,1.7-11.7,2.8v-21.3h0ZM131.1,193.3c.8-.2,1.6-.3,2.2-.3,1.1,0,1.5.3,1.8.6,1.8,1.8,3.6,7.3,3.3,17.4-.1,5.1-1.4,22.3-13.2,29l-13.7,6.4v-44.1l19.6-8.9h0ZM165.6,271.8c30-14.3,59.8-25.3,88.7-32.7,36-9.3,72.8-13.9,109.3-13.9,59,0,117.5,12.1,174,35.8,3.8,1.6,12.4,5.4,17.4,7.8-.1,1.5-.4,3.7-.7,6.7,0,.4,0,.8-.1,1.1-2.5,21.4-7.6,46.6-15.4,77.1-13.4,51.8-31.3,97.7-54.8,140.3-23.6,42.8-52.8,82.3-89.4,120.9-10.1,10.7-21.7,21-32.9,30.9-.2.1-.3.3-.5.4-26.7-24.2-51.1-50.1-72.5-77-24.3-30.6-45-62.7-61.4-95.4-31-61.9-52.1-126.5-59.3-181.8-.2-1.2-.3-2.5-.5-3.9-.7-5.1-1.5-11.2-1.9-16.2h0ZM568.3,375.4c.3-1.3.6-2.7.9-4,1.4-5.9,2.7-11.4,4.4-16.7.1-.5.4-1.1.6-1.7,2.3.4,5.7,1.2,7.8,1.9,0,.2,0,.3,0,.4-.4,2.1-1,5.5,1.1,8.8l-.4.2-1.4.8-1,1.2c-1.1,1.3-1.8,2.8-2.8,6.3-.6,1.9-1,3.4-1.1,4.8l-7.9-2.1h0ZM547.9,435.6c1.2-5.4,6.4-18.8,9.7-26.4.1-.3.3-.6.4-.8,4,1.1,16.6,5.7,21.6,7.9,0,.4-.2.8-.3,1.2v.2c-.9,3.5-3,8.7-4.6,12.8-.5,1.3-1,2.5-1.5,3.7-.2.6-.5,1.4-.8,2.3-.5,1.4-1.8,5-2.9,7.2-2.9-.7-16.8-5.9-21.5-8.1h0ZM225.8,576.2c.3-.3.7-.6.8-.8,4-3.5,13.9-10.8,17.5-12.8,0,0,.1,0,.2,0,0,0,0,0,0,0,4.4,4.6,12.6,16.2,16.5,22.5.2.4.4.7.6,1-.1,0-.2.2-.3.3-2.4,2.2-13.5,10.4-18,13.3-.1-.1-.2-.3-.3-.4-.5-.6-1-1.4-1.7-2.1-3.9-4.7-12.6-16.3-15.4-20.9h0Z"/>
  </g>
  <g>
    <path class="st9" d="M471.4,486.6c-1.2,0-2.2-.4-3.1-.9l-24-12.2,26.7,3.8s0,0-.1,0c-.4,0-.7.1-.8.2l5.9,6.8c-1.2,1.1-2.2,2-3.6,2.3h-.4c0,0-.5,0-.5,0Z"/>
    <path class="st4" d="M472.8,481c-.6.6-1.2,1.1-1.3,1.1,0,0,0,0,0,0-.2,0-.6-.2-1.1-.4.2,0,.3,0,.5,0,.7,0,1.3-.2,2-.7M418,465.2l48.3,24.6c1,.5,2.8,1.4,5.2,1.4h.9l.9-.2c2.9-.6,4.7-2.3,5.9-3.5l-11.8-13.5c1-.8,2.3-1.2,3.6-1.2s.5,0,.8,0l-53.6-7.6h0Z"/>
  </g>
  <g>
    <path class="st9" d="M441.5,510.7l.7-.3h-1.2s0,0,0,0h-.3c0-.1,1.6,0,1.6,0l5-2.1c.2.5.5,1.2.5,2.2h0c0,.1,0,.3,0,.3,0,.9-.3,1.7-.8,2.8l-5.5-2.8Z"/>
    <path class="st4" d="M443.2,510c0,.2.1.3.1.4,0,.2-.1.6-.4,1,.2-.4.3-.8.4-1,0,0,0-.2-.1-.4M442.9,511.4s0,0,0,0c0,0,0,0,0,0M434.9,507.4l1,.5.6.3-1.7-.8h0Z"/>
  </g>
  <path class="st10" d="M424,386l-.3-.7c-20.8-5.7-41.2-14.9-62-20.9,7.3,2.1,14.3,4.7,21.3,7.4,13.7,4.7,27.3,9.5,41,14.2Z"/>
  <path class="st10" d="M447.4,458.1c.5-1.8,2.7-3.3,2.4-5.6-.1-.9-1-1.5-1.1-3-.2-2.4.9-4.7,1.1-7,.4-7.3.6-20.4-2-31.2l-6.9-7.9c1.5,3.1,2.8,6.7,3.1,7.9,3.2,12,2.4,25.2,1.2,37.5-2.5.4-3.9-.7-5.9-1.9-2.1-1.3-10.4-7.3-10.6-9.4,2.3-10.5,3.6-21.3,5.6-31.8.2-1.2,1.2-6.9,2.1-7.3l-3.5-4c-.4.9-.6,2.4-1,4.4-2.2,11-3.4,22.8-5.8,33.7-.1.6-.2,1.7-1.1,1.4-.6-.2-2.4-2.4-2.9-3.1-3.3-4.8-3.6-12.5-11.9-9.9,0-5.3,2.3-9.2,1.5-14.7-.2-1.3-1.2-2.6-1.3-4.1,0-2,1.1-3.3,1.3-4.9.2-1.4.2-6.7,0-8-.1-.8-.9-1.7-1.5-1.3-.3.3-2.4,8.2-4,7-.8-.6-1.2-8.5-1-10-4.9.8-5.7,8.1-5,12.2.3,1.6,2,2.7,1.5,4.5-.1.5-1,0-1.6.6-1.7,1.7-1.9,8.6-1.4,10.9.3,1.6,2.1,2.6,2.4,3.6.2.8.3,4.5,0,5.3-.4,1.4-2.6.5-3.9,1.1-3.3,1.5-7.2,13.3-9.1,16.8-1,1.9-2.3,4.9-4.9,3.6-.6-.3-4.4-8-4.9-9.1-1.2-3.4-2.8-9.9-3.5-13.5-.6-3.3-1.8-9.4,1.6-11.6,2.4-1.6,4.7,2.5,6.5,4,1.4,1.1,6.7,5.1,8.1,5.4,4.2.9,4.4-.4,4.1-4.1-.3-4.5-8.7-24.8-11.7-28.3-3.1-3.5-8.3-4.8-12-1.5-1.7,1.5-2.4,7-5.2,5.3-2.6-1.6-2.8-7.6-2.5-10.3,3.2-.9,3.1,3.1,6.5,3,2.1-8.8-9-17.2-15.5-8.7-1.6,2.1-2.8,6.5-3,9.1-.1,1.9.9,3.3,0,5.2-1.4,1-9.8-10.6-16.1-9.4-5.7,1.1-6.7,7.5-5.6,12.4.8,3.6,11.6,20.8,14.8,22.2,1.6.7,4.2,0,6,.3,1,1.1-2.3,9.1-3,10.8-.8,1.9-6.2,13.8-7.3,14.2-.4.2-1,.2-1.2-.3-.8-1.7-1.4-6.9-2.1-9.3-.9-2.9-2.8-8.6-5.5-10-1-.5-5.7-1.4-5.9-1.7-1.3-1.7,1.1-4.9,1.4-7.1.2-1.3-.1-4.5.3-5.1.9-1.3,5.2.6,5.3-1.7,0-2.5-3-1.9-4.3-2.9-2-1.5,0-5.5-5.4-5.4-.8,0-1.7.5-2.5.5-1.7,0-4.4-.3-5.9.1-1.9.6-2,3.4-2.5,3.8-.5.4-4.7.9-4.9,1.1-.2.2-.1,2.4.4,2.8.8.5,4.4,0,5,.8.3.5,0,4.3.2,5.6.2,1.7,2.6,6.3,2.3,7.1-.4,1.2-5.4,1.6-6.5,2-5,1.8-7.2,12.8-10.6,12.6-1.1,0-9.2-2.9-9.8-3.6-1.4-1.8.7-6.2-1.8-9.2-1.3-1.7-3.6-.8-4.1.8-.5,1.8-.3,14.4,0,16.8,2.8,14.8,10.2,30.6,12.8,45.2.6,3.7-.8,2.1-2.1,4.2-1.5,2.5-1.5,5.4.1,7.8,3.2,4.8,9,0,8.6-4.6-3.6-14.3-8.9-28.2-12.4-42.6-.5-2.1-3.1-12-.7-12.7,2.4-.7,9.1,6.8,11.5,7,.9,0,3.1-1,3.9-1.6,1.6-1.2,1.9-3.2,3.8-2.9.4,3.7,1.7,8.1,2,11.7.7,9.7-.6,19.4-1,29-.6,12.8,2,25,4,37.5.4,2.2-10.5,8.8-4.8,9.3,2,.2,12.2-3.2,12.7-4.9-.7-5.8-2.6-11.5-2.9-17.4-.2-3.2-.4-18.6.4-20.6.7-1.8,1.6-2.1,2.7-.5,1.7,2.3.7,9.3.9,12.6.2,2.7.9,5.8,1,8.5.2,4.7-.9,13.1.9,17.1,1.9,4.4,9.8,4.1,13.9,3.6,3-.3,1.8-1.6-.2-2.4-2.8-1.2-4.7-.8-6.2-4.3-2.1-4.9-1.7-22.2-1.9-28.6-.5-16-1.7-35.2-.5-51,.1-1.7.3-3.7,2.2-2.3.9.7,2.7,9.6,2.8,11.3.3,4.7-1.7,6.5-2.7,10.5,0,0,0,0,0,0,0,0,0,0,0,0,0,0,0,0,.1,0,0,0,0,0,0,0,0,0,.1,0,.2,0,0,0,0,0,.1,0,0,0,.2,0,.3.1,0,0,0,0,.2,0,.1,0,.3.1.4.2,0,0,0,0,0,0,.2,0,.4.2.6.2,0,0,.1,0,.2,0,.2,0,.3.1.5.2,0,0,.2,0,.3,0,.2,0,.3.1.5.2.1,0,.2,0,.3.1.2,0,.4.1.6.2.1,0,.2,0,.3.1.2,0,.5.1.7.2,0,0,.2,0,.3,0,.2,0,.4.1.6.2,8.2-15.8,28.3-20.5,41.6-7.4.9.9,5.1,6,5.2,7.5,0,0,0,0,0,0,.3,0,.7-.2,1-.3,0,0,.1,0,.2,0,.2,0,.5-.1.7-.2.1,0,.2,0,.3,0,.2,0,.4-.1.6-.2.1,0,.2,0,.3-.1.2,0,.4-.1.5-.2,0,0,.2,0,.3,0,.2,0,.4-.1.5-.2,0,0,.1,0,.2,0,.2,0,.4-.2.6-.3,0,0,0,0,0,0,.2,0,.3-.1.4-.2,0,0,0,0,.1,0,0,0,.2,0,.3-.1,0,0,0,0,.1,0,0,0,.1,0,.2,0,0,0,0,0,0,0,0,0,0,0,.1,0,0,0,0,0,0,0,0,0,0,0,0,0-2.2-4.4-2.3-3.5-.4-6.6,1.2-1.9,2.1-5,3.4-6.6,1.6-2.1,1.8.1,1.8,1.7-.9,23.5-2.6,47-4,70.4-.6,3-8.5,3.2-7.5,7.4.1.6,2.2.8,2.8.9,1.9,0,7.1-.3,8.9-.7,1.8-.3,3.7-1.5,4.1-3.4.5-8.6,1.4-17.2,1.8-25.7.2-5.3.2-10.7.5-16,0-.8-.5-2,.7-1.7,2.3,2.9.8,6.6.7,9.7-.2,10,.3,20,0,30,0,2.2-1.6,4.7.5,6.5,2,1.6,5.2,2.2,7.7,2.3,11.5.4,1.6-3.6,0-6.1-.7-1.2-.9-2.6-.8-4,11.5,3.1,20.3-10.4,24.9-19.5l5.7-14.4c2.1-7,3.4-13.8,5.5-21.7ZM298.3,487.3c.8.4,1.3,2.6.5,3.6-2.8,3.8-3.6-5.4-.5-3.6ZM412.3,509.7c-1.1-.3-1-1.3-1-2.2-.3-3.6.5-7.1.5-10.5.2-9.7-.3-19.4,0-29,.2-6.7.4-19.1,3-25,.4-.9,1.8-2.7,2.8-2.7.6,0,6.6,3.9,6.3,5.2l-11.5,64.2ZM424.6,505c-2,2.2-5.7,5.6-8.8,5l11.8-62.7c4.2,2.4,9.9,3.6,14.1,5.9,1.2.7,2.8,1.3,2.7,2.8-3.6,15.9-8.3,36.8-19.7,49Z"/>
  <path class="st10" d="M425.7,388.4l-2.9-1.1c.7.5,1.8.9,2.9,1.1Z"/>
  <path class="st10" d="M420.7,523.2c0,0,0-.1,0-.2,0,0,0,.1,0,.2h0Z"/>
  <path class="st10" d="M331,457c0-.5.1-1,.2-1.5,0,.3-.1.9-.2,1.5Z"/>
  <path class="st10" d="M422.6,517.2c.4-.2.9-.4,1.4-.5.3,0,.6,0,.8,0-.3,0-.5,0-.8,0-.6,0-1,.3-1.4.5Z"/>
  <path class="st10" d="M297.6,515.8c.4,0,.8.2,1.3.4-.5-.2-1-.4-1.3-.4h0Z"/>
  <path class="st10" d="M426,386.4l-.2.3c.2,0,.5.2.7.2l-.5-.5Z"/>
  <path class="st11" d="M401.1,620.9c73.6-77.7,119.5-161.2,146.4-265.1,6.4-24.9,12.6-52.7,15.7-78.3.3-2.6,1.6-12.5.8-14.2-.5-1.1-19.9-9.5-22.8-10.7-92.5-38.9-191.5-47.4-289.1-22.3-32.8,8.4-64.5,20.7-94.9,35.5-.9.7-.8,1.8-.8,2.8.1,7.1,1.6,17.2,2.6,24.4,8.2,62,32.3,128.9,60.2,184.6,34.4,68.8,84.6,129.7,141.9,180.5,13.4-12,27.5-24.2,39.9-37.2ZM361.1,649.6c-58.8-53.1-108.4-116.6-142.2-188.6-23.6-50.2-44.4-108.4-52.3-163.5-1-6.8-2.3-15.1-2.6-21.9,0-1.6-.4-4.7.7-5.8,21.4-10.2,43.5-19.2,66.1-26.3,82.5-25.9,168.8-27.6,252.1-4.1,25.4,7.1,50.2,16.7,74,27.9.3.5-.2,6.1-.3,7.2-2.1,20.4-7,42.8-11.7,62.8-23.2,99.4-63.4,181.8-130.4,258.6-16.4,18.8-35.5,36.4-53.5,53.7Z"/>
  <path class="st6" d="M512.9,129.6c.4,1.4,1.6,4.1,2.5,5.2,3.6,4.1,15.6,6.3,21.2,8,5.2,1.7,10.8,4.1,16.1,5.4,5.7,1.4,8.3-.5,9-6.5,1.1-10.1.6-29,0-39.5-.6-10.9-1.7-14.9-12-18.9-7-2.7-22.8-8.2-29.8-9.1-3.3-.5-6.1.7-7.3,4-1.9,5.6-1.1,29.8-.9,37.2.1,3.9.2,10.8,1.2,14.3ZM550.5,96.5l.7,37.5-28.4-8.6v-37.2c0,0,27.7,8.3,27.7,8.3Z"/>
  <path class="st6" d="M156.5,144.7c.5,5.8,1.9,11.5,9,9.5,9.9-4.2,20.4-6.7,30.4-10.5,7.2-2.8,9.9-5.3,10.5-13.5.8-10.3-.1-21.7-.5-32-.3-6.8,2.3-19.8-8.1-18.6-5.7.6-27.9,8.7-33.5,11.5-5,2.5-7.3,6-7.9,11.6.8,13.7-1.1,28.5,0,42ZM178.7,98.5c4-1.4,10.7-4,14.6-4.9.7-.1,1.4-.2,2.1-.1l.3,36.5-28.2,10-.8-36.5c.5-1.1,10-4.3,12-5Z"/>
  <path class="st6" d="M285.3,122.9l-.3-22.1c.2-.3.2-1.2.4-1.3.3-.2,7-1.1,7.8-.4l16.1,20.6c1.7.8,7.1-.5,9.2-.7,2.6-.3,6.7,1.1,4.4-2.9l-16.6-19.1c5.9-.6,10.8-1.3,12.5-7.8,1.1-4.2,1-22.6-.2-26.7-.8-2.5-2.4-4.7-5-5.5-4.1-1.3-17.9.9-22.9,1.6-5.4.8-10.9,1.9-16.3,2.7l.2,62.8c.9,1.3,8.9-1,10.7-1.1ZM284.9,72c5.2-.8,11-2.2,16.2-2.5,1.8,0,6.3-.5,7.2.8.9,1.5,2,14.7-2.4,14.4l-19.9,2.6c-.4.2-1.1-.5-1.1-.7v-14.7Z"/>
  <path class="st6" d="M217.9,131.2c0,.9.6,5.2,1,5.5l10-2.3v-23.1c.1-.4,6.3-2.2,6.9-2.2,1.6,0,14.4,16.9,16.6,19.1,1.2.6,14-1.7,14.5-2.3.4-.5,0-1.7-.4-2.2-3-4.9-11.4-10.9-15.3-15.7-.3-.3-1.4-1.9-1.2-2,4.8-1,9.3-1.7,11.6-6.7,2-4.4,1.8-18.3,1.4-23.6-.5-6.1-2.4-11.6-9.7-10.7-6.6.8-15.7,3.4-22.4,5.1-2,.5-12.1,2.8-12.9,3.6-1.4,1.4,0,9.7,0,12,.3,14.9-1,30.9,0,45.5ZM228.4,83.7c.1-.3,1.1-.9,1.5-1,2.6-.9,7.5-2,10.4-2.6,2.4-.5,8.8-2.2,10.8-1.6.9.3,1.2,3.6,1.3,4.7.3,3.4.8,9.1-2.8,10.6-5.4,2.2-13.8,2.3-19.4,4.6-.5.2-1.7-.4-1.7-.7,0-2.8-.6-12.1,0-14Z"/>
  <path class="st2" d="M328.8,178l15.1,22.6c.9.5,9.7.4,11.3.3,1.9-.2,3.3-.7,2.2-2.7-3.7-6.5-11.1-13.3-15.1-19.8l-.3-1.5c5.7,0,9.6-.5,11.2-6.5,1.3-4.4,1.4-24.6-.2-28.8-1-2.6-3.4-5-6.2-5.2-7.8-.7-16.3.4-24,1-1.7.1-11.6,0-12.2,1.1l.4,63.9c3.4,0,7,.2,10.3-1,.8-3.1-.6-22.4.7-23.3.5-.3,6.4-.4,6.9-.1ZM321.4,165.2c0-2.9-.6-13.1,0-15,.4-1.3,5.8-.7,7.2-.8,4.7-.3,9.4-.9,14.2-.4,1.4.9,1.5,12.7.3,14.4-1.8,2.5-9.3,1.4-12.5,1.5-2.4,0-5.6.6-8.1.9-.4.2-1.1-.5-1.1-.7Z"/>
  <path class="st6" d="M460.3,208.4v-64.5c-2,.4-7.3-2.2-8.7-.5l-16.5,33-17-37.5c-1.4-1.7-6.7-.8-8.7-1v64.5l9,.5v-39l14.8,33.5h3.1c0-.1,13.4-28.4,13.4-28.4l1.1-.6v39c3.1.2,6.5,1.7,9.5,1Z"/>
  <path class="st2" d="M618.2,111.8c-.3-.5-8.6-4.3-9-3.8l.5,38.2-1,.3c-9.1-17.5-18.9-34.7-28.7-51.8-1.1-.4-6.8-3.3-7.3-2.7l.6,63.9,9.4,3.6c-.2-10.6.2-21.2,0-31.7,0-1.3-.5-2.6-.6-4,0-.8,0-3.1,1-3.2l28.5,52.1c2,.9,7.1,5.1,7.5,1.1,1.1-9.3-.4-21.9-.5-31.5,0-4.3.6-28.8-.4-30.4Z"/>
  <path class="st6" d="M383.3,104.7c.4,5.4,1.6,11,7.5,12.5,8.2,2.1,20.1.2,28.7,2.3,12.8.9,9.5-13.9,9.7-22.2-.4-1.1-9.2-4.1-10.9-4.8v13.5l-23.5-1.5c-.2-12.5-.8-24.9-.5-37.5,7.9-.3,15.7.7,23.5,1.5v10.7c0,2,9.6-.6,11-.5,1.1-1.9,0-3.7,0-5.5-.2-8,.5-16.3-9.8-17.7-6.5-.8-15.4-1.4-21.9-1.6-6.2-.1-12.1-.5-13.5,7-.8,4.5-.2,8.1-.2,12.2,0,10-.8,21.7,0,31.5Z"/>
  <path class="st6" d="M374.8,116.2v-11.5c0,0-.7-.7-.7-.7h-31.7v-13.5h14.7c.6,0,3.3-.7,3.7-1.2v-11.2h-19v-11.2c0-1.3,9.2-.7,10.8-.7,1.2,0,2.3-.5,3.5-.5,5.9-.2,11.9.2,17.8,0v-11.2c0-.5-1.2-.7-1.7-.8-6.9-.8-14.6.3-21.5.5-2.6,0-19.3-.2-20,.9-.2,21,.6,42,.8,63l43.5-1.8Z"/>
  <path class="st6" d="M147.5,211.2c.3-12.6-2.1-31.3-19.4-26.4l-25.6,11.7v64l26.8-12.4c12.9-7,17.9-22.8,18.2-36.8ZM112,241.9v-36.7c1.1-1,2.5-1.5,3.8-2.2,2.8-1.4,9.5-4.7,12.2-5.3,11.1-2.5,9.8,17.2,8.4,23.9-2.2,10.5-12.6,17.3-22.3,20.1-.7.2-1.3.3-2,.2Z"/>
  <path class="st6" d="M536.2,186.9l27.3,49.4c.7,1,7.2,3.6,7.2,1.8v-64.2c-1.8-.2-7.3-3.4-8.7-3-.4.1-.6.4-.7.8.1,11-.4,22,0,32.9,0,1.3.5,2.5.5,4,0,1.1.4,2.1-1,1.8l-27-48.7c-.8-.9-7-2.7-7.4-2.3v65c1.5.1,8.8,3.2,9.5,2.5,0-12.1-1.3-25.1-.5-37.2,0-.7,0-2.6,1-2.7Z"/>
  <path class="st6" d="M111.6,177.8c4.3-1.2,24.4-10.8,28.2-13.3,2.3-1.5,4.5-4,5.4-6.6.2-.5,1.3-4.5,1.3-4.7v-14c0-.2-.8-.8-1.2-.7-2.2,1.1-7.1-.3-8.8,1.2-1.5,1.3.5,12.2-1.1,13.6l-20.7,9.5c-.4.3-1.2-.6-1.2-.7v-34.5c0-.1-.5-.5-.4-.9l.7-.8,21.7-9.6v11c.8.2,1.1-.3,1.6-.6,1.3-.7,7.1-4.5,8-5.5.6-.5,1.1-.9,1.2-1.8-.6-3.8,0-13.8-2.4-16.4-1.3-1.4-2.9-1.4-4.7-1.2-3.6.3-26.8,11.3-30.2,13.8-4,3-5.6,7.6-6,12.4-.9,10.4-.7,27.4,0,38,.4,6.2.4,14,8.6,11.6Z"/>
  <path class="st2" d="M198,171.2v-11.2c-5.1.6-10.6,2.6-15.6,4.1-8,2.5-15.9,5.5-23.9,8.3v64c8.9-2.7,17.6-6,26.4-8.9,2-.6,13.6-3.5,13.6-4.9v-12.2l-29.5,8.5v-13.5l15.9-4.8c.5,0,1.1-1.1,1.1-1.4v-10.5c0-.3-.7-.7-1.1-.7-3.7,0-11.5,4.9-15.8,4.9v-12c3-1.4,29-8.2,29-9.7Z"/>
  <path class="st6" d="M514.2,167.9v-11.7c-5.8-2.3-12.2-3.7-18.4-5.1-6.9-1.6-14-3.3-21.1-4.1v65l38.3,8.9c.5.2,1.6-1,1.6-1.1v-12.2l-30-7.7v-13.2l17,3.5v-12.5c-5.6-1.5-11.7-2.1-17-4.2v-11.7l29.5,6.5Z"/>
  <path class="st6" d="M220,193.5c8.6-2.6,17.7-3.7,26.3-6.5,4.2-2.7,5.4-6.5,5.7-11.3.3-4.9.6-20.4-1.4-24.1-2.4-4.4-5.5-3.7-9.7-3-10.3,1.6-20.7,5.3-30.9,7.3v64l9.9-2v-24.4ZM220,165.9c4.2-.4,17.3-5.4,20.6-4.4.4.1,1.4,1,1.4,1.2v11.5c0,1.2-2.1,2.1-3.1,2.4-5.7,2-13,2.4-18.9,4.3v-15Z"/>
  <path class="st6" d="M259.9,209.2c1.2-.9,3.3-12.1,4.6-14.1l22.1-3.5c1.8.3,3.9,10.9,5.4,12.8,2-.3,10.3,0,10.9-1.7l-21.5-60.6c-1.9-.4-9.5.3-10.4,1.8l-21.1,67.1c.4.4,9.6-1.4,10-1.7ZM276.2,158.4l6.7,21-14,1.5,7.2-22.5Z"/>
  <path class="st2" d="M222.8,511.8l-18.3-3.6c-1.3-1.3,6.5-15.4,5.9-18.6-.4-2.2-4.7-8.8-6-11.5-6-12.6-11.6-25.5-17.5-38.3-.6-.4-7.7,3.1-7.9,3.8.3,2.4,7,13.9,6.2,15.2l-28.1,13c-1.1,1.5,2.7,7.9,3.6,9.5,10.1-3.6,19.5-9.4,29.6-12.9l6.3,14c1.8,1.7,3.8-.8,5.5-1,.7-.1,1,0,.7.7-2.5,8.3-6.5,16.4-9.2,24.7-1.8,1.7-14.7,7.4-15.2,8.8-.3.9,3.6,8.3,4,8.6.6.4,1.3,0,1.9-.2,3.7-1.3,11.5-7.5,14.8-7.7,1.3,0,3.5.4,4.9.7,8,1.4,15.8,4.3,23.9,5.4.6-.7-4.6-8.8-5.1-10.3Z"/>
  <path class="st2" d="M496.3,522.3l14.9,19.9c-3.2,0-23.8-5.9-25-5.3-.3.2-3.9,5.5-3.4,6.4l14.4,20.4-24.2-5.5c-1.5.2-6.3,8.5-5.8,9,5.2.2,40.4,10.5,42.4,9.4.3-.2,3.6-5.5,2.9-6.4l-14.8-21,25.2,5.5c1.8-.2,3.2-3.9,4.2-5.3l-26.1-34.6c-.6.1-4.9,6.8-4.7,7.6Z"/>
  <path class="st2" d="M268.5,580.3c-4.1-6.4-12.6-18.6-17.6-23.9-3.7-3.9-6.3-4.3-11.1-1.7-4.6,2.5-15,10.4-19.1,13.9-3.1,2.7-5.1,4.7-4.1,9.1.7,3.4,14.6,21.3,17.7,25,3.1,3.8,4.6,7.6,10.7,6.1,2.6-.7,19.4-13.3,22.2-15.8,5.1-4.5,5-7.2,1.4-12.8ZM242.3,598.1c-1.5-.4-12.7-17.3-14.9-19.7l-.4-1.7,18.1-13,15.8,21.1c-2.4,1.6-17.1,13.6-18.6,13.3Z"/>
  <path class="st2" d="M586.1,409.5c-2.6-1.9-24.4-10-27.7-10.3-2.3-.2-4.8,0-6.6,1.7-.9.9-2,3.4-2.5,4.7-2.9,6.6-8.9,21.6-10.3,28.2-.8,3.9-.7,6.2,2.7,8.6,2.5,1.8,22.4,9.4,25.9,10.1,1.4.3,4.4.5,5.7.1,3.7-1.1,6.9-11.7,8.2-15.3,2-5.2,5.1-12.4,6.4-17.6,1-3.9,1.9-7.5-1.8-10.2ZM570.1,442.2l-21.4-7.5.3-3.4c1.9-2.7,6.7-20.4,8.1-21.4.6-.4,1.4-.2,2,0l20,7.3-9,24.9Z"/>
  <path class="st2" d="M590.7,359.3c-.9-1.2,2.9-8-2.3-11.5-2.6-1.8-13.9-4.4-17-4-3.9.6-5.3,4.9-6.4,8.1-3.1,9.7-4.9,20.1-7.6,29.9l39.8,10.5,2-9.5c-2-1.1-13.5-3-13.9-4.3-.1-.4,1.6-5.9,2-6.4l17.8-10.4,3.6-13.4-2,.3-16,10.7ZM577.2,376.1c-1.2,1.6-7-1.6-9-1.3l4.9-19.8c.7-1.8,8.2.4,8.5.9,1.3,2-3.9,17-4.4,20.2Z"/>
  <path class="st6" d="M434.9,69.4c.4.7,13.4,1.7,15.5,2.2.9.2,2.5.2,2.8,1.2l.5,49.8c.2.8,10.6,2.3,11,1.8l-.5-50.5c.9-.8,16,3.5,17.5,2.8,2.4-1.1,0-9.1.5-11.5l-.5-1c-5.3-1-10.6-2.2-15.9-3.1-8.6-1.5-21-3.8-29.4-4.1-1.8,0-2,0-2.2,1.7-.4,3.5.9,7.2.6,10.7Z"/>
  <path class="st2" d="M375.6,200.9h9.7v-50.7c0-.1,1-1.1,1.3-1.1,3.3.2,7.1.8,10.4.9,1.1,0,5.8.3,5.8-.8v-11.5c0-.3-.8-.8-1.2-.8-10.7-.8-21.3-.8-32-1-3.9,0-8.3-1.4-12.2,0v13h17.5v51.2c0,0,.7.7.7.7Z"/>
  <path class="st2" d="M427.3,613.1h-.7s-2.5,2-2.5,2l-4.2,4.2,15.9,18.8h-37.2c-.4,0-5.1,4.1-5.2,5.2l25.9,29.6c.4.3.8.3,1.2.3.6,0,6.6-4.7,6.2-6.1l-16.4-18.9h38.7c.4,0,5.2-4,4.5-5l-26.3-30Z"/>
  <path class="st2" d="M487.1,592.2c-1.4.3-15.6,18.8-17.8,21.2-.8.5-1.6.2-2.4-.1-.2-.1-3.9-3-4-3.2-.6-1.1.6-2.5,1.2-3.4,1.3-1.8,8.5-9.1,8.6-10.4-.7-1.3-5.3-5.4-6.6-5.2-1.5,1.6-9,11.7-10.1,12-1,.3-5.2-3.1-5.2-4.2,0-1.4,16.2-18.6,18-21.6.1-.7-3-3.4-3.7-4-2-1.6-1.9-2.4-3.8-.5-7.8,7.7-14.4,18.8-22.5,26.5l-1,2,30.7,26.2,25.2-29.7c0-1-5.8-5.8-6.7-5.7Z"/>
  <path class="st2" d="M148.7,405.8c-2.7.6-5.3,2.2-8.2,2l-6-19.9,21.5-6.8c1,2.4,7.1,19.4,6.4,20.3l-6.5,2.3c.6,1.2,3.7,8.4,4.1,8.6.9.6,7.7-2,8.9-2.7,4.1-2.6,3.3-6.7,2.4-10.8-1.3-5.7-4.5-14.7-6.6-20.4-1.4-3.8-2.7-7.8-7.5-8-3.7-.2-21.9,6-26.2,7.8-5.2,2.1-7.2,3.8-6.4,9.8.6,4.4,6.3,21.3,8.3,25.6,4,8.6,9.9,4.7,16.9,2.7-.1-1.5-.3-10.4-1.2-10.4Z"/>
  <path class="st6" d="M576.7,176.9v12.2c2.1,1.7,15.9,6,16.4,7.6v51.4c0,.7.4.8.9,1.2,2,1.3,6.2,2.5,8.7,3.1v-50.7c0-.9,1.3-.6,1.9-.4,3.6,1,8.9,5.2,12.5,6.1.7.2,2.1,0,2.1-.6v-11.7c-9.4-4.1-18.6-8.7-28-12.7-4.7-2-9.6-4.3-14.5-5.3Z"/>
  <path class="st2" d="M614.8,290.5c-3.9,3.5-7.8,7.4-11.7,11.1-2.1,2-6.7,7.6-8.7,8.8-.5.3-.8.7-1.5.4-1.4-.4-11.9-22.8-13.9-25.6l-1.4-.8c-.5,4.7-1.9,9.4-1.9,14.1l11.4,20.8-14.5-1.8c-.6.5-1.9,9.9-1.5,10.3,4.8-.2,38.3,7,40,5.8.5-.4,2-9.1,1.4-9.7l-15.4-2.8,19.1-17.9,2.4-15.4c-.3-.4-3.4,2.3-3.8,2.7Z"/>
  <path class="st2" d="M288.6,605.1c-.7-.7-3.5-4.8-3.8-4.9-.9-.5-2.9,1.3-3.7,1.9-8.5,6.9-18.4,15.6-26.2,23.2-.9.8-2.2.5-1.3,2.2.2.5,5.4,6.1,5.8,6.3.5.3.9.4,1.5,0,1.8-1.4,9.1-9,10.7-8.8,1.4,1.5,8.9,11.1,9.9,11,.7-.1,6.4-5.2,6.3-5.6l-9.5-11.5c0-.7,5.1-5.1,5.9-5.2,1.4-.1,15.8,17.9,18.2,20.2,1.1,1.2,6.5-3.7,6.8-4.3.4-.9-.3-1.5-.8-2.2-5.2-7.1-13.7-15.5-19.7-22.2Z"/>
  <path class="st2" d="M546.8,472.6c-3.6-8.5-7-17-10.9-25.4-.2-.5-.2-1.4-.3-1.5-.3-.3-1.3,0-1.7.5-.3.4-4.2,9.2-4.2,9.7,0,2.7,8.6,16.3,7.4,17.7l-17.6,4.5-5.8,12.5,28.2-8c4.2-.4,13.6,7,17,6.6.5,0,.7-.2,1-.5.7-.8,3.6-7.6,3-8.5-.9-1.5-13.9-6-16.1-7.6Z"/>
  <path class="st2" d="M500.2,132.4c1.5-3.7.1-8,0-11.7-.3-14.9,1.7-34.8,0-48.9,0-.7-.4-2.7-.9-3.1-1.2-.9-7.4-1.2-9.2-2.2l-.3,63.6c.1.5,9.8,2.7,10.5,2.3Z"/>
  <path class="st2" d="M180.4,422.8l-38.4,14.5,3.5,9.4,37.9-14.5c.8-1.3-2.8-7.5-3-9.4Z"/>
  <path class="st8" d="M545,337.3c4.7-20,9.5-42.4,11.7-62.8.1-1.1.6-6.7.3-7.2-23.8-11.3-48.6-20.8-74-27.9-83.4-23.5-169.6-21.8-252.1,4.1-22.7,7.1-44.7,16.1-66.1,26.3-1.1,1.1-.8,4.1-.7,5.8.3,6.8,1.6,15.1,2.6,21.9,7.9,55.2,28.7,113.3,52.3,163.5,33.9,72,83.4,135.4,142.2,188.6,18-17.3,37.1-34.9,53.5-53.7,67-76.8,107.2-159.2,130.4-258.6ZM284.9,541.2v-13c-12.5,2-16.2-12.9-22.9-20.4-.6-1.4,1.5-1.7,2.6-2.6,3.7-3.2,7.1-8.5,5.1-13.6-1.9-4.8-7.8-3.9-11.6-1.9-4.2,2.2-6.2,6.4-8,10.5-.4-.3-.9-.4-1.3-.9-1.9-2.1-5-7.6-6.6-10.3-9.6-16.3-17.3-35.4-17.9-54.5-.1-4.1,1.7-10.6.9-13.9-.5-2.1-4.6-6-4.9-7.6-.3-1.7,2.3-8.5,2.5-11.5.7-9,.2-19.6-5.5-27-1-1.3-2.9-1.4-2.5-3.7,16.4-1.9,25.7-16.6,22.3-32.6-.6-2.7-2-4.9-2.3-7.6.3-1.1,4.4-.1,6.1-.4,8.8-1.7,14.5-16.8,15.3-24.7.7-6.6-.4-13,2.6-19.4,1.2-2.4,4.4-5.9,7.2-6.3,11.1-1.6,8.5,10.7,9.3,18,6.7,1.4,14.4.1,18.1-6.1,3-5.2,4.1-12.6,3.4-18.5-.3-2.8-4.4-11.5-1.7-13.3,1.1-.7,5.1-.7,6.8-1.2,6.6-1.8,11.9-7.8,13.8-14.3,4.5,2,8.5,4.9,13.5,5.5,12,1.3,23.7-1.3,30.4-12,.7-1.1.9-2.3,1.4-3.1,1.5-2.6,2.4,1.9,3.2,3.1,7.5,11.9,23.6,15.1,36.3,10.4,1.7-.6,6.6-3.7,7.5-3.3.7.2,1.8,4,2.4,5.1,3.3,5.8,9.1,8.2,15.3,9.7,1,.2,2.4-.1,3,.2,2.2,1.2-.4,6.8-.8,8.7-1.3,6.4-2,10.8-.3,17.2,1.2,4.5,4.1,9.6,8.6,11.4,2.5,1,9.9,2.7,11.7.4,1.7-2.2-1.3-13.1,3.8-16.7,5.2-3.7,11.3,1.7,13.4,6.5,2.2,5.3,1.3,9.9,1.8,15.2,1.2,12,6.4,30.8,22,27.7.4.4-3.1,9-3.4,10.9-1.6,12,4.9,24.2,16.2,28.5,1.9.7,6,1,6.6,2.4.5,1.5-.8,1.2-1.5,1.9-7.1,7.5-7.7,22.7-5.8,32.4.3,1.6,2,5.2,1.9,6.6-.2,1.8-5,6.4-5.4,9.1-.2,1.4.8,4.1.9,5.9.9,23-6.7,43.3-18.4,62.6-1,1.6-5.6,9.1-6.8,9.7-1,.4-1.5-2.7-2-3.5-2.4-4.2-7.4-8.9-12.5-8.5-8.8.6-6.4,11.7-1.7,16.3,1.2,1.2,4.3,2.1,3.9,3.9-6.4,7.1-10.9,23-22.9,19.9v12.7l-152.9.2Z"/>
  <polygon class="st9" points="551.2 134 550.5 96.5 522.7 88.2 522.8 125.4 551.2 134"/>
  <path class="st9" d="M195.7,130l-.3-36.5c-.7,0-1.4,0-2.1.1-3.9.8-10.6,3.4-14.6,4.9-2,.7-11.4,3.9-12,5l.8,36.5,28.2-10Z"/>
  <path class="st9" d="M286,87.4l19.9-2.6c4.4.3,3.3-13,2.4-14.4-.8-1.3-5.4-.9-7.2-.8-5.2.3-11,1.7-16.2,2.5v14.7c0,.2.7.8,1.1.7Z"/>
  <path class="st9" d="M230.1,98.5c5.6-2.3,14.1-2.4,19.4-4.6,3.7-1.5,3.1-7.2,2.8-10.6,0-1.1-.4-4.4-1.3-4.7-2-.7-8.4,1-10.8,1.6-2.9.6-7.8,1.7-10.4,2.6-.4.2-1.4.7-1.5,1-.6,1.9,0,11.2,0,14s1.2,1,1.7.7Z"/>
  <path class="st9" d="M322.5,165.8c2.5-.3,5.7-.8,8.1-.9,3.1-.1,10.7,1,12.5-1.5,1.2-1.7,1.1-13.5-.3-14.4-4.7-.4-9.5.1-14.2.4-1.5,0-6.8-.5-7.2.8-.6,1.9,0,12.1,0,15s.7.8,1.1.7Z"/>
  <path class="st9" d="M136.4,221.5c1.4-6.6,2.8-26.4-8.4-23.9-2.7.6-9.4,3.9-12.2,5.3-1.3.7-2.7,1.2-3.8,2.2v36.7c.7,0,1.3,0,2-.2,9.7-2.8,20.1-9.7,22.3-20.1Z"/>
  <path class="st9" d="M241.9,174.2v-11.5c0-.2-1-1.1-1.4-1.2-3.3-1-16.4,4-20.6,4.4v15c5.9-1.9,13.1-2.4,18.9-4.3,1-.3,3.1-1.2,3.1-2.4Z"/>
  <polygon class="st9" points="276.2 158.4 268.9 180.9 282.9 179.4 276.2 158.4"/>
  <path class="st9" d="M227,576.7l.4,1.7c2.2,2.3,13.3,19.3,14.9,19.7,1.5.4,16.2-11.7,18.6-13.3l-15.8-21.1-18.1,13Z"/>
  <path class="st9" d="M557.2,410c-1.4,1-6.2,18.6-8.1,21.4l-.3,3.4,21.4,7.5,9-24.9-20-7.3c-.6-.2-1.4-.4-2,0Z"/>
  <path class="st9" d="M573.1,355l-4.9,19.8c2-.3,7.8,2.9,9,1.3.5-3.2,5.7-18.2,4.4-20.2-.3-.5-7.7-2.6-8.5-.9Z"/>
  <path class="st5" d="M437.8,528.2c12,3.1,16.5-12.8,22.9-19.9.4-1.8-2.7-2.7-3.9-3.9-4.7-4.6-7.1-15.7,1.7-16.3,5.2-.3,10.1,4.3,12.5,8.5.5.8,1,3.9,2,3.5,1.2-.5,5.8-8,6.8-9.7,11.8-19.3,19.3-39.6,18.4-62.6,0-1.7-1.1-4.4-.9-5.9.4-2.8,5.2-7.3,5.4-9.1.1-1.4-1.6-5-1.9-6.6-1.8-9.7-1.2-24.9,5.8-32.4.7-.7,2-.4,1.5-1.9-.5-1.5-4.7-1.7-6.6-2.4-11.3-4.3-17.8-16.5-16.2-28.5.2-1.8,3.8-10.5,3.4-10.9-15.6,3.1-20.8-15.8-22-27.7-.5-5.3.4-9.9-1.8-15.2-2-4.7-8.1-10.2-13.4-6.5-5.1,3.6-2,14.5-3.8,16.7-1.8,2.3-9.3.6-11.7-.4-4.5-1.8-7.4-6.9-8.6-11.4-1.7-6.4-1-10.9.3-17.2.4-1.9,3.1-7.4.8-8.7-.6-.3-2.1,0-3-.2-6.2-1.5-11.9-3.9-15.3-9.7-.7-1.1-1.7-4.9-2.4-5.1-1-.3-5.9,2.7-7.5,3.3-12.7,4.7-28.9,1.5-36.3-10.4-.8-1.2-1.6-5.7-3.2-3.1-.5.8-.7,2-1.4,3.1-6.7,10.6-18.4,13.3-30.4,12-5.1-.6-9.1-3.4-13.5-5.5-1.9,6.4-7.2,12.4-13.8,14.3-1.7.5-5.7.5-6.8,1.2-2.6,1.8,1.4,10.5,1.7,13.3.7,5.9-.3,13.4-3.4,18.5-3.7,6.3-11.3,7.5-18.1,6.1-.8-7.3,1.8-19.5-9.3-18-2.7.4-6,3.9-7.2,6.3-3,6.4-2,12.8-2.6,19.4-.8,7.8-6.5,23-15.3,24.7-1.7.3-5.8-.7-6.1.4.3,2.7,1.7,4.9,2.3,7.6,3.4,16-5.9,30.6-22.3,32.6-.4,2.4,1.5,2.5,2.5,3.7,5.6,7.4,6.2,18,5.5,27-.2,2.9-2.8,9.8-2.5,11.5.3,1.6,4.4,5.5,4.9,7.6.8,3.3-1,9.8-.9,13.9.6,19.2,8.4,38.2,17.9,54.5,1.6,2.7,4.6,8.2,6.6,10.3.4.4.8.5,1.3.9,1.8-4.1,3.8-8.3,8-10.5,3.8-2,9.7-2.9,11.6,1.9,2,5.1-1.4,10.4-5.1,13.6-1.1,1-3.2,1.3-2.6,2.6,6.7,7.5,10.4,22.4,22.9,20.4v13l152.9-.2v-12.7ZM249.5,340.2c10.1-5.9,17.2-15.4,18-27.3.6-.6,11.4,1.4,13.2,1.5,10.5.6,20.2-5.8,25.4-14.6,5.8-9.8,6.3-20.9,4.3-31.9,2.2,0,5-1.2,6.6-2.6,1.1-.9,2.8-4.3,3.1-4.4,1-.3,5.9,1.5,7.6,1.8,12.2,2.1,27.3-.9,34.3-11.9,1.1,0,4.3,4.4,5.6,5.5,6.5,5.2,16.1,7.4,24.4,7,2.1,0,10.4-2.1,10.9-2,.5.2,2.3,3.6,3.9,4.7,1.5,1,5.2,1.6,5.4,1.8.5.6-.9,6.4-.9,7.7-1,15.2,6.4,33.3,22.3,37.7,7.7,2.1,14-.1,21.7-.5-.6,8.7,4.3,19.2,11,24.7,1.3,1.1,7.5,4.3,7.7,4.9.3.8-.8,6-.7,8.1.2,3.9,1.6,8.2,3,11.7l-103.4-38.2v-41.7h-6.5s0-6.5,0-6.5h22.2c.4,0,2.4,2.2,1.6,3-2.9,5.7-5.3,11.6-8.2,17.3-.3.6-1,.6-1.1,1-2.6,11.7,13.1,22.1,20.1,9.5,1-1.8,2.8-7.2,2.3-9-.2-.6-1.1-1.3-1.5-2-2.9-5.6-5.4-11.5-8.3-17.2-.2-2.7,6.6-3.6,1.7-5.2h-28.8c0-1,.4-6-.7-6h-10.2c-.4,0-.7,5.3-.5,6h-26.7c-.4,0-.9,1.1-.7,1.7.3.8,4.1.6,3.5,3.4l-9.8,19.9c.6,7.3,5.1,15.2,13.5,13.8,4.9-.8,8.8-7.7,9.2-12.3.3-3.1-1-3.1-2-5.4-1.7-3.7-6.2-11.6-7.1-14.9-.3-1-.6-3.9.9-3.9h19.2c-.2,1,.2,6.3,0,6.5-.5.5-5.5-1.1-5.5,1.2l-.5,41-100.4,35.7c2.4-6.6,2.3-13.2,1-20.1ZM391.3,281.4v18c-1.3-.1-7.8.5-8-.8-.3-1.7,2.7-5.9,3.1-7.9l4.9-9.3ZM392.8,283.6c0-.2.8-.9,1-.7l7,15.7c-1.2.9-8,2.1-8,.5,0-3.5-.7-12.8,0-15.5ZM332.9,284.1c0-.6.2-2.2,1-2.2.3.8.6,1.7,1,2.5,2.2,4.5,4.5,9,6.5,13.7-.4,1.7-6,1.4-7.5,1.3-.3,0-.7,0-1,0,.3-5-.4-10.3,0-15.2ZM332.4,299.3c-2.8,0-5.7.2-8.5-.5-.2-.8.1-1.6.4-2.3,1.1-3.2,5.2-11.3,7.1-14.1.2-.3,0-1.5,1-1.5.4.8-.5,1.7-.5,2-.4,5.1-.1,11.4.5,16.5ZM233.9,372c0-1.1,2.8-1.8,3.8-2.2,33.3-12.7,69.7-23.9,103.6-35.3,7-2.4,14.1-4.7,21.2-6.8l127.7,45c.3.4-2,5.2-2.3,6.4-1.1,3.8-2,9.9-1.6,13.8,0,.8,1.7,6.7.7,6.8l-123.5-42.4-124.8,39.8c-1.5.2-.3-2.3-.2-3.2.2-4.6-.3-10-1.5-14.5-.4-1.6-3.1-6.9-3.1-7.5ZM432,519.2c-2.3-.2-3-1.7-4.7-2.3-.5-.2-1-.3-1.7-.3-.2,0-.5,0-.7,0-.3,0-.5,0-.8,0-.6,0-1,.3-1.4.5-.1,0-.3.2-.4.3-.3.3-.6.6-.8,1,0,.1-.1.3-.2.4-.1.3-.2.6-.3.9,0,.3-.1.6-.2,1,0,.5,0,1.1,0,1.6s0,.4,0,.6c0,0,0,.1,0,.2,0,.3,0,.6,0,1,0,.2,0,.4,0,.6,0,.4,0,.8,0,1.2,0,.4,0,.8,0,1.1,0,.6,0,1.1,0,1.6,0,.2,0,.3,0,.5,0,.3-.1.6-.2.9,0,.2-.1.4-.2.6,0,.2-.2.4-.3.6h-53.7s-12.9,0-12.9,0h0c0,0-50.9-.5-50.9-.5v-11.2c0-.9-1.3-2-2.7-2.8-.3-.2-.5-.3-.8-.4-.5-.2-1-.4-1.3-.4-.8,0-1.4.2-2,.5-.1,0-.2.1-.3.2-.7.4-1.3,1-1.9,1.4-.4.3-.8.5-1.3.6-.6.1-1.2.2-1.8.2-1.8,0-3.5-.6-5.1-1.6-1-.6-1.9-1.5-2.7-2.4-.4-.5-.8-.9-1.1-1.4s-.6-1-.9-1.5c-.2-.4-.3-.8-.3-1.2,0-.8.1-1.5.4-2.3.4-.9,1-1.9,1.6-2.8.1-.2.2-.4.3-.6.5-.8.9-1.5,1.1-2.3.4-1.4.6-2.8.7-4.2,0-.9,0-1.8,0-2.7-.1-2.2-.6-4.3-1.4-6.2-.3-.8-.7-1.5-1.1-2.2-.6-1.1-1.3-2.1-2.2-3-.5-.6-1.1-1.2-1.7-1.8-2.5-2.2-5.5-3.8-8.8-4.6-.8-.2-1.7-.4-2.6-.5s-1.8-.2-2.7-.2c-1.4,0-2.7.1-4.1.4-.9.2-1.8.6-2.6,1-.2.1-.4.2-.6.3-.4.2-.8.5-1.2.7-.6.3-1.2.6-1.8.8-.4.1-.8.2-1.2.2-.8,0-1.5-.2-2.3-.9-5.5-4.8-9.8-16.1-11.5-27.2-.4-2.5-.6-4.9-.7-7.3,0-1.2,0-2.3,0-3.5,0-1.1,0-2.2.2-3.3.1-1.2.3-2.3.5-3.4.1-.7.3-1.4.5-2,.3-1,.6-1.9,1-2.7.1-.3.3-.5.4-.8.5-.9,1.1-1.6,1.7-2.1.3-.2.6-.4.9-.6.6-.3,1.3-.5,2.1-.8.6-.2,1.1-.3,1.8-.6.4-.2.9-.3,1.3-.6,1.4-.7,2.6-1.5,3.6-2.4,3.3-3.1,3.8-7.1,2.3-10.7-.2-.5-.5-1-.8-1.5s-.6-.9-1-1.4c-1.8-2.2-4.6-4-7.9-4.9,3.8-1.9,8.2-3.3,12.3-4.7,8.7-3,17.5-6,26.2-8.9,13.1-4.4,26.3-8.7,39.4-13.1s26.3-8.8,39.3-13.4h0s0,0,0,0c20.8,6,41.1,15.2,62,20.9l.3.7c.6.2,1.2.4,1.9.6l.2-.3.5.5c13.3,4.6,26.6,9.1,39.8,13.7,4.1,1.4,8.4,2.8,12.3,4.7-9.6,2.4-13.5,12.8-5.9,18.9h0c0,0,.1,0,.2.1.8.6,1.8,1.2,2.9,1.8,3.6,1.8,6,.9,8.2,5.3,5.7,11.6-1.2,40.9-11,49.4,0,0-.1,0-.2.1-.6.6-1.2,1.1-1.3,1.1-.1,0-.6-.2-1.1-.4-2.2-.3-4.5-2.5-7-3-11.1-2.1-21.3,4.4-24,14.1-.1.6-.2,1.1-.3,1.7-.4,2.7-.2,5.7.7,8.7,0,.2.2.5.3.8.8,1.9,2.7,4.8,3.2,6,0,.2.1.3.1.4,0,.2-.2.6-.4,1-.5,1.1-1.5,2.5-2.1,3.3-.1.2-.2.3-.3.4-1.2,1.5-2.3,2.6-3.6,3.3-1.3.7-2.8,1-4.8.8Z"/>
  <path class="st5" d="M436.5,398.3c1.3-.3,2.9,2.2,4.4,5.1l6.9,7.9c-1.7-7.4-4.7-13.7-9.8-16.5-3.3-1.8-4.5-1.8-5.1-.5l3.5,4s0,0,0,0Z"/>
  <path class="st1" d="M361.7,364.4s0,0,0,0h0c7.1,2.5,14.2,5,21.3,7.4-6.9-2.7-14-5.3-21.3-7.4Z"/>
  <path class="st1" d="M330.3,484.7l1.4-3.1c-.9-6.8-1.6-16.1-.7-24.6,0-.6,0-1.2.2-1.5.9-4,3-5.8,2.7-10.5,0-1.7-1.9-10.6-2.8-11.3-1.9-1.5-2.1.6-2.2,2.3-1.2,15.8,0,35,.5,51,.2,6.4-.2,23.7,1.9,28.6,1.5,3.4,3.4,3.1,6.2,4.3,1.9.8,3.1,2.1.2,2.4-4.1.5-12,.8-13.9-3.6-1.7-4.1-.6-12.4-.9-17.1-.1-2.7-.9-5.8-1-8.5-.2-3.3.8-10.3-.9-12.6-1.1-1.6-2-1.3-2.7.5-.8,2-.6,17.4-.4,20.6.4,5.9,2.2,11.6,2.9,17.4-.5,1.7-10.7,5.1-12.7,4.9-5.7-.5,5.2-7,4.8-9.3-2.1-12.5-4.7-24.7-4-37.5.5-9.5,1.8-19.3,1-29-.3-3.7-1.6-8-2-11.7-1.9-.2-2.2,1.7-3.8,2.9-.8.6-2.9,1.6-3.9,1.6-2.4-.1-9.1-7.7-11.5-7-2.3.7.2,10.6.7,12.7,3.5,14.3,8.9,28.3,12.4,42.6.4,4.5-5.4,9.4-8.6,4.6-1.6-2.4-1.6-5.3-.1-7.8,1.3-2,2.7-.5,2.1-4.2-2.6-14.6-10-30.4-12.8-45.2-.3-2.5-.5-15.1,0-16.8.5-1.6,2.8-2.5,4.1-.8,2.4,3,.3,7.5,1.8,9.2.6.8,8.7,3.6,9.8,3.6,3.4.1,5.6-10.8,10.6-12.6,1.1-.4,6.1-.8,6.5-2,.3-.8-2.1-5.4-2.3-7.1-.2-1.3.1-5.1-.2-5.6-.5-.9-4.2-.2-5-.8-.6-.4-.7-2.6-.4-2.8.2-.2,4.3-.7,4.9-1.1.5-.3.5-3.2,2.5-3.8,1.5-.4,4.2,0,5.9-.1.9,0,1.7-.5,2.5-.5,5.3-.1,3.4,3.8,5.4,5.4,1.3,1,4.4.4,4.3,2.9,0,2.3-4.4.4-5.3,1.7-.5.7-.2,3.8-.3,5.1-.3,2.2-2.7,5.3-1.4,7.1.2.2,4.9,1.1,5.9,1.7,2.7,1.4,4.6,7.1,5.5,10,.8,2.4,1.4,7.6,2.1,9.3.2.5.9.5,1.2.3,1.1-.5,6.5-12.3,7.3-14.2.7-1.6,4-9.7,3-10.8-1.8-.2-4.4.5-6-.3-3.2-1.5-13.9-18.6-14.8-22.2-1.1-4.8,0-11.3,5.6-12.4,6.3-1.2,14.7,10.4,16.1,9.4.9-1.9,0-3.3,0-5.2.2-2.6,1.4-7,3-9.1,6.5-8.5,17.6,0,15.5,8.7-3.4,0-3.3-3.9-6.5-3-.3,2.7,0,8.7,2.5,10.3,2.8,1.7,3.5-3.8,5.2-5.3,3.7-3.3,9-2,12,1.5,3,3.5,11.4,23.7,11.7,28.3.3,3.8.1,5-4.1,4.1-1.4-.3-6.7-4.2-8.1-5.4-1.8-1.5-4.1-5.6-6.5-4-3.3,2.2-2.1,8.3-1.6,11.6.6,3.6,2.3,10.1,3.5,13.5.4,1.2,4.3,8.9,4.9,9.1,2.6,1.3,3.8-1.7,4.9-3.6,1.9-3.6,5.8-15.4,9.1-16.8,1.3-.6,3.5.3,3.9-1.1.3-.8.2-4.5,0-5.3-.3-1-2.1-2-2.4-3.6-.4-2.3-.3-9.2,1.4-10.9.5-.5,1.4-.1,1.6-.6.5-1.8-1.2-2.9-1.5-4.5-.7-4.1,0-11.4,5-12.2-.2,1.5.2,9.4,1,10,1.6,1.2,3.7-6.7,4-7,.6-.5,1.4.5,1.5,1.3.2,1.3.2,6.6,0,8-.2,1.6-1.4,2.9-1.3,4.9,0,1.5,1.1,2.8,1.3,4.1.8,5.5-1.5,9.4-1.5,14.7,8.2-2.6,8.5,5.1,11.9,9.9.5.7,2.3,2.9,2.9,3.1.9.4,1-.8,1.1-1.4,2.4-10.9,3.6-22.7,5.8-33.7.4-2,.6-3.5,1-4.4.6-1.3,1.8-1.3,5.1.5,5,2.8,8,9.1,9.8,16.5,2.6,10.8,2.4,23.9,2,31.2-.1,2.3-1.2,4.6-1.1,7,.1,1.6.9,2.1,1.1,3,.3,2.3-1.9,3.7-2.4,5.6-2.1,7.8-3.4,14.7-5.5,21.7h0s4.3-3.9,4.3-3.9l5.5-7.7,1.2-20.9,6.2-20.1-1.9-13.7-3.5-12.3-15.4-8-12.6-4.7c-1.1-.2-2.2-.5-2.9-1.1l-61.2-22.9c-13.1,4.6-26.2,9-39.3,13.4s-26.3,8.7-39.4,13.1c-8.8,2.9-17.5,5.9-26.2,8.9-4.1,1.4-8.4,2.8-12.3,4.7,3.3.8,6.1,2.6,7.9,4.9.4.4.7.9,1,1.4s.6,1,.8,1.5c1.5,3.5,1,7.6-2.3,10.7-1,.9-2.1,1.7-3.6,2.4-.5.2-.9.4-1.3.6-.6.2-1.2.4-1.8.6-.7.2-1.4.4-2.1.8-.3.2-.6.4-.9.6-.6.5-1.2,1.1-1.7,2.1-.1.2-.3.5-.4.8-.4.8-.7,1.7-1,2.7-.2.7-.4,1.3-.5,2-.2,1.1-.4,2.2-.5,3.4,0,1.1-.2,2.2-.2,3.3,0,1.1,0,2.3,0,3.5.1,2.4.3,4.8.7,7.3,1.7,11.1,6,22.5,11.5,27.2.8.7,1.5.9,2.3.9.4,0,.8,0,1.2-.2.6-.2,1.2-.5,1.8-.8.4-.2.8-.5,1.2-.7.2-.1.4-.2.6-.3.8-.4,1.7-.8,2.6-1,1.4-.3,2.8-.4,4.1-.4.9,0,1.8,0,2.7.2s1.7.3,2.6.5c3.4.8,6.4,2.4,8.8,4.6.6.5,1.2,1.1,1.7,1.8.8.9,1.5,1.9,2.2,3,.4.7.8,1.5,1.1,2.2.8,1.9,1.3,4,1.4,6.2,0,.9,0,1.8,0,2.7-.1,1.4-.3,2.8-.7,4.2-.2.8-.6,1.5-1.1,2.3-.1.2-.2.4-.3.6-.6.9-1.2,1.9-1.6,2.8-.3.8-.5,1.5-.4,2.3,0,.4.1.8.3,1.2.2.5.5,1,.9,1.5s.7,1,1.1,1.4c.8.9,1.7,1.7,2.7,2.4,1.5,1,3.2,1.6,5.1,1.6.6,0,1.2,0,1.8-.2.4-.1.8-.3,1.3-.6.6-.4,1.2-1,1.9-1.4.1,0,.2-.1.3-.2.6-.3,1.2-.5,2-.5h0c.4,0,.8.2,1.3.4.3.1.5.3.8.4,1.3.8,2.7,1.9,2.7,2.8v11.2l50.9.5-14.9-14.9-8-31.5Z"/>
  <path class="st1" d="M440.5,515.2c0-.1.2-.2.3-.4.6-.8,1.6-2.3,2.1-3.3.2-.4.4-.8.4-1,0,0,0-.2-.1-.4-.5-1.2-2.4-4.1-3.2-6-.1-.3-.2-.6-.3-.8-.9-3-1-6-.7-8.7,0-.6.2-1.1.3-1.7-.9,3.3-1,7,.1,10.8l-3.2-9.4c-4.6,9.1-13.4,22.6-24.9,19.5,0,1.3,0,2.8.8,4,1.5,2.5,11.4,6.5,0,6.1-2.5,0-5.7-.6-7.7-2.3-2.1-1.8-.5-4.2-.5-6.5.2-10-.2-20,0-30,0-3.1,1.6-6.8-.7-9.7-1.2-.2-.7,1-.7,1.7-.3,5.4-.2,10.7-.5,16-.4,8.6-1.3,17.2-1.8,25.7-.4,1.9-2.3,3-4.1,3.4-1.8.3-7,.7-8.9.7-.6,0-2.6-.2-2.8-.9-1-4.3,6.9-4.5,7.5-7.4,1.4-23.5,3.1-46.9,4-70.4,0-1.6-.1-3.8-1.8-1.7-1.3,1.7-2.2,4.7-3.4,6.6-1.9,3.1-1.8,2.2.4,6.6,0,0,0,0,0,0,1.3,9.7.3,20.6-.8,27.9l1.1-.3-1.3,19.2-10.9,25.9-13,3h0,53.7c.1-.2.2-.3.3-.5,0-.2.2-.4.2-.6,0-.3.2-.6.2-.9,0-.2,0-.3,0-.5,0-.5,0-1.1,0-1.6,0-.4,0-.8,0-1.1,0-.4,0-.8,0-1.2,0-.2,0-.4,0-.6,0-.3,0-.6,0-1,0,0,0-.1,0-.2,0-.2,0-.4,0-.6,0-.6,0-1.1,0-1.6,0-.3,0-.7.2-1,0-.3.2-.6.3-.9,0-.1.1-.3.2-.4.2-.4.5-.7.8-1,.1,0,.2-.2.4-.3.4-.2.9-.4,1.4-.5.3,0,.6,0,.8,0,.3,0,.5,0,.7,0,.7,0,1.2.1,1.7.3,1.7.6,2.5,2.1,4.7,2.3,2,.2,3.5,0,4.8-.8,1.3-.7,2.4-1.8,3.6-3.3Z"/>
  <path class="st3" d="M348.9,324.6l.5-41c0-2.3,5-.8,5.5-1.2.2-.2-.2-5.5,0-6.5h-19.2c-1.5,0-1.2,2.9-.9,3.9.8,3.3,5.3,11.3,7.1,14.9,1.1,2.2,2.4,2.3,2,5.4-.5,4.5-4.3,11.5-9.2,12.3-8.4,1.4-13-6.5-13.5-13.8l9.8-19.9c.6-2.9-3.2-2.6-3.5-3.4-.2-.6.3-1.7.7-1.7h26.7c-.2-.7.1-6,.5-6h10.2c1.2,0,.6,4.9.7,6h28.8c5,1.6-1.9,2.5-1.7,5.2,2.9,5.6,5.4,11.5,8.3,17.2.4.7,1.4,1.4,1.5,2,.5,1.8-1.3,7.2-2.3,9-7,12.6-22.6,2.2-20.1-9.5,0-.4.8-.4,1.1-1,2.8-5.7,5.3-11.7,8.2-17.3.8-.8-1.2-3-1.6-3h-22.2v6.5s6.5,0,6.5,0v41.7l103.4,38.2c-1.4-3.6-2.7-7.9-3-11.7-.1-2.1,1-7.3.7-8.1-.2-.5-6.4-3.8-7.7-4.9-6.7-5.5-11.5-16.1-11-24.7-7.7.3-14,2.6-21.7.5-15.9-4.3-23.2-22.5-22.3-37.7,0-1.3,1.5-7.1.9-7.7-.2-.2-3.9-.8-5.4-1.8-1.5-1-3.4-4.5-3.9-4.7-.5-.2-8.8,1.9-10.9,2-8.2.4-17.9-1.8-24.4-7-1.3-1.1-4.6-5.5-5.6-5.5-7.1,10.9-22.1,14-34.3,11.9-1.7-.3-6.6-2.2-7.6-1.8-.4.1-2,3.4-3.1,4.4-1.7,1.4-4.4,2.5-6.6,2.6,2,11,1.5,22.1-4.3,31.9-5.2,8.8-14.9,15.2-25.4,14.6-1.9-.1-12.6-2.1-13.2-1.5-.8,11.9-7.9,21.4-18,27.3,1.3,6.9,1.4,13.5-1,20.1l100.4-35.7Z"/>
  <path class="st6" d="M238.4,394c0,.9-1.3,3.5.2,3.2l124.8-39.8,123.5,42.4c.9,0-.7-5.9-.7-6.8-.3-3.9.6-10,1.6-13.8.3-1.1,2.7-5.9,2.3-6.4l-127.7-45c-7.1,2.1-14.2,4.4-21.2,6.8-34,11.4-70.4,22.5-103.6,35.3-1,.4-3.7,1.1-3.8,2.2,0,.5,2.6,5.9,3.1,7.5,1.2,4.5,1.7,9.9,1.5,14.5ZM451.8,369.8c.5-.4,5.4,1.3,6.6.9,1.3-.3,4-4.6,5.1-4.4,1.4,1.6.4,4.5,1.7,6.3.8,1.1,5.3,2.5,5.5,2.8,1.2,1.9-4.4,2.6-5.4,4.2-.9,1.5-.5,4.9-1.1,6.7-.7.8-4.3-4.1-5.4-4.4-1.5-.4-6.7,1.4-7.1.9.2-2.1,2.6-4.6,2.5-6.7-.1-1.9-2.7-4.1-2.5-6.3ZM404.3,353.8c1.8-.4,5.7,1.3,7.1.9,1.2-.3,4.7-5.6,5.3-4.9.3.3.5,5.9,1.1,6.9.6.9,5.7,2.3,5.9,2.9.6,2-4.9,2.5-5.8,4.2-.6,1.3-.5,4.9-.7,6.5-.8,1-5-4.4-5.4-4.5-1.5-.3-6.5,1.6-7.1,1-.1-2.5,2.6-4.3,2.5-6.7,0-1.3-3.3-6-3-6.3ZM352.9,340.8c1.4-.4,6-.5,6.9-1.1.6-.4,2.4-5.7,2.6-5.9,1.3-1,3.1,5,4,5.7,1.3,1,5.2,1,7,1.3.8.7-4.1,4.4-4.4,5.3-.7,2.3.7,4.8.4,7.1-.5.6-5.4-2.9-6.2-3-1.5,0-4.8,2.8-5.6,2.9-2.2.3.3-5.2-.3-7.1-.3-1-5.2-4.6-4.4-5.3ZM301.4,359.5c.1-.4,5.7-2.5,5.9-2.8.5-.8.4-6.2.6-6.4,0,0,1.5,0,1.9.1.4.2,2.6,4,4,4.3,1,.2,6.2-1.3,6.6-.9.3,2.2-2.4,4.3-2.5,6.2-.2,2.6,2.4,4.3,2.5,6.7-2.1.4-5.3-1.4-7.1-.9-1,.3-4.7,5.2-5.4,4.4-.3-1.8-.2-5.3-1-6.7-1.1-1.7-6.1-2.1-5.5-4ZM259.3,372.7c.4-.6.8-6.1,1.1-6.4,1.1-.9,2.2,1.3,2.7,1.8.7.7,2,2.5,2.7,2.6,1.2.3,6.2-1.4,6.6-.9.4,2.4-2.6,4.6-2.5,6.7.1,1.9,2.7,4.1,2.5,6.3-.5.4-5.4-1.3-6.6-.9-1,.3-4.9,4.9-5.9,3.9-.3-1.5-.2-4.8-.7-6-.6-1.3-6.2-2.9-6.2-3.7.8-1.2,6-2.8,6.4-3.3Z"/>
  <path class="st1" d="M383.3,298.5c.3,1.3,6.8.7,8,.8v-18l-4.9,9.3c-.5,1.9-3.5,6.1-3.1,7.9Z"/>
  <path class="st1" d="M331.4,282.4c-1.9,2.8-6,10.9-7.1,14.1-.3.8-.6,1.5-.4,2.3,2.8.7,5.6.5,8.5.5-.6-5.1-.9-11.3-.5-16.5l-.5-.5Z"/>
  <path class="st1" d="M400.8,298.6l-7-15.7c-.2-.1-.9.6-1,.7-.7,2.6,0,12,0,15.5s6.8.4,8-.5Z"/>
  <path class="st1" d="M333.9,286.1c-.2,4.4.1,8.9,0,13.3,1.4,0,7.1.4,7.5-1.3-1.9-4.7-4.3-9.1-6.5-13.7-1.5-.3-1,.8-1,1.7Z"/>
  <path class="st0" d="M333.9,299.3c.1-4.4-.2-8.9,0-13.3,0-1-.5-2,1-1.7-.4-.8-.7-1.7-1-2.5-.8,0-.9,1.7-1,2.2-.4,4.9.3,10.3,0,15.2.3,0,.7,0,1,0Z"/>
  <path class="st0" d="M332.4,280.9c-.9,0-.8,1.2-1,1.5l.5.5c0-.3.9-1.2.5-2Z"/>
  <path class="st4" d="M472.8,424.3h0c0,0,0,.1.1.2,0,0,0-.1-.2-.2Z"/>
  <path class="st1" d="M441.6,453.2c-4.1-2.4-9.8-3.5-14.1-5.9l-11.8,62.7c3.1.6,6.7-2.8,8.8-5,11.5-12.2,16.1-33.1,19.7-49,.1-1.5-1.5-2.1-2.7-2.8Z"/>
  <path class="st1" d="M436.5,398.3s0,0,0,0c-.8.5-1.8,6.1-2.1,7.3-2.1,10.6-3.3,21.3-5.6,31.8.2,2.1,8.5,8.1,10.6,9.4,1.9,1.2,3.4,2.3,5.9,1.9,1.1-12.2,1.9-25.5-1.2-37.5-.3-1.1-1.6-4.7-3.1-7.9-1.4-2.9-3.1-5.4-4.4-5.1Z"/>
  <path class="st1" d="M338.2,458c.3,0,.5.1.8.2.1,0,.3,0,.4,0,.2,0,.5,0,.7.1.1,0,.3,0,.4,0,.3,0,.5,0,.8,0,.1,0,.3,0,.4,0,.3,0,.6,0,.9,0,.1,0,.2,0,.4,0,.4,0,.9,0,1.3,0,.4,0,.7,0,1.1,0,.1,0,.2,0,.3,0,.3,0,.5,0,.8,0,.1,0,.3,0,.4,0,.3,0,.5,0,.8,0,.1,0,.3,0,.4,0,.3,0,.6,0,.9-.1,0,0,.2,0,.3,0,.4,0,.8-.2,1.2-.3,0,0,.2,0,.3,0,.3,0,.6-.2.9-.3.1,0,.3,0,.4-.1.3,0,.5-.2.8-.3.1,0,.3-.1.4-.2.3-.1.6-.2.9-.4.1,0,.2,0,.4-.2.4-.2.8-.4,1.2-.6,0,0,.1,0,.2-.1.3-.2.7-.4,1-.6.1,0,.3-.2.4-.2.3-.2.6-.3.8-.5.1,0,.3-.2.4-.3.3-.2.6-.4.8-.6.1,0,.3-.2.4-.3.4-.3.8-.6,1.2-1,.4.4.8.7,1.2,1,.1,0,.3.2.4.3.3.2.6.4.8.6.1.1.3.2.4.3.3.2.6.4.8.5.1,0,.3.2.4.2.3.2.7.4,1,.6,0,0,.1,0,.2.1.4.2.8.4,1.2.6.1,0,.2,0,.3.1.3.1.6.3.9.4.1,0,.3.1.4.2.3.1.6.2.8.3.1,0,.3,0,.4.1.3,0,.6.2.9.3,0,0,.2,0,.3,0,.4,0,.8.2,1.2.3,0,0,.2,0,.3,0,.3,0,.6.1.9.2.1,0,.3,0,.4,0,.3,0,.5,0,.8,0,.1,0,.3,0,.4,0,.3,0,.5,0,.8,0,.1,0,.2,0,.3,0,.4,0,.7,0,1.1,0,.4,0,.9,0,1.3,0,.1,0,.2,0,.4,0,.3,0,.6,0,.9,0,.1,0,.3,0,.4,0,.3,0,.5,0,.8,0,.1,0,.3,0,.4,0,.3,0,.5,0,.8-.1.1,0,.3,0,.4,0,.3,0,.6-.1.8-.2,0,0,.1,0,.2,0-.1-1.5-4.3-6.6-5.2-7.5-13.2-13.1-33.4-8.4-41.6,7.4.1,0,.2,0,.4,0,0,0,.2,0,.3,0Z"/>
  <path class="st1" d="M417.5,440.2c-1,0-2.4,1.8-2.8,2.7-2.6,5.9-2.8,18.3-3,25-.3,9.7.2,19.4,0,29,0,3.4-.8,6.9-.5,10.5,0,.9,0,1.9,1,2.2l11.5-64.2c.3-1.3-5.7-5.2-6.3-5.2Z"/>
  <path class="st11" d="M298.8,490.9c.7-1,.3-3.2-.5-3.6-3.1-1.8-2.2,7.4.5,3.6Z"/>
  <path class="st10" d="M357.2,346.2c.6,1.9-1.9,7.4.3,7.1.8-.1,4.1-3,5.6-2.9.9,0,5.7,3.6,6.2,3,.3-2.3-1.1-4.8-.4-7.1.3-1,5.2-4.7,4.4-5.3-1.7-.3-5.7-.3-7-1.3-.9-.7-2.7-6.7-4-5.7-.3.2-2.1,5.5-2.6,5.9-.9.6-5.5.7-6.9,1.1-.8.7,4.1,4.3,4.4,5.3Z"/>
  <path class="st10" d="M259.2,379.8c.6,1.2.4,4.5.7,6,1,1,4.8-3.7,5.9-3.9,1.2-.3,6.2,1.4,6.6.9.2-2.2-2.4-4.4-2.5-6.3-.1-2.1,2.9-4.3,2.5-6.7-.5-.4-5.4,1.3-6.6.9-.6-.2-2-1.9-2.7-2.6-.5-.5-1.6-2.7-2.7-1.8-.3.3-.7,5.8-1.1,6.4-.4.5-5.6,2.1-6.4,3.3,0,.8,5.6,2.4,6.2,3.7Z"/>
  <path class="st10" d="M404.8,366.8c.6.6,5.7-1.3,7.1-1,.3,0,4.5,5.5,5.4,4.5.2-1.6.1-5.2.7-6.5.8-1.8,6.4-2.2,5.8-4.2-.2-.6-5.3-2-5.9-2.9-.7-1-.8-6.5-1.1-6.9-.7-.7-4.2,4.6-5.3,4.9-1.4.3-5.3-1.3-7.1-.9-.3.3,2.9,5,3,6.3.2,2.4-2.6,4.3-2.5,6.7Z"/>
  <path class="st10" d="M306.8,363.6c.9,1.4.7,4.9,1,6.7.7.8,4.4-4.1,5.4-4.4,1.9-.5,5,1.3,7.1.9-.2-2.5-2.7-4.2-2.5-6.7.1-1.9,2.8-4,2.5-6.2-.4-.4-5.6,1.2-6.6.9-1.3-.3-3.5-4.1-4-4.3-.4-.2-1.8-.2-1.9-.1-.2.2,0,5.6-.6,6.4-.2.3-5.8,2.4-5.9,2.8-.6,1.9,4.4,2.3,5.5,4Z"/>
  <path class="st10" d="M451.8,382.8c.5.4,5.7-1.3,7.1-.9,1,.3,4.6,5.2,5.4,4.4.5-1.8.1-5.2,1.1-6.7,1-1.6,6.6-2.3,5.4-4.2-.2-.3-4.6-1.7-5.5-2.8-1.3-1.8-.3-4.6-1.7-6.3-1.1-.2-3.8,4.1-5.1,4.4-1.2.3-6.2-1.4-6.6-.9-.2,2.2,2.4,4.4,2.5,6.3.1,2.1-2.3,4.6-2.5,6.7Z"/>
  <path class="st1" d="M379.3,528.2l10.9-25.9,1.3-19.2-1.1.3c-.7,5-1.4,8.2-1.4,8.2-8.2,36.1-27.8,38.6-27.8,38.6,0,0-19.6-2.5-27.8-38.6,0,0-.9-4-1.7-9.9l-1.4,3.1,8,31.5,14.9,14.9h0c0,0,12.9,0,12.9,0h0l13-3Z"/>
  <path class="st7" d="M344.4,458.7c.4,0,.7,0,1.1,0-.4,0-.7,0-1.1,0,0,0,0,0,0,0Z"/>
  <path class="st7" d="M378,458.7s0,0,0,0c-.4,0-.7,0-1.1,0,.4,0,.7,0,1.1,0Z"/>
  <path class="st7" d="M378,460.2c-6.2,0-11.9-2-16.8-6-4.9,4-10.6,6-16.8,6s-9.6-1.4-12-2.4c-1.5,15.5,2.4,33.3,2.4,33.5,7.4,32.7,24.3,37,26.3,37.4.9-.2,5.1-1.2,10-5.6,5.2-4.6,12.2-13.8,16.3-31.9,0-.2,3.9-18,2.4-33.5-2.4,1-6.7,2.4-12,2.4ZM375.6,504.2c-.6,0-6.9-7.6-7.8-8.8,0,0,0-.1-.1-.2l-5.2-6.2c-.4.1-.8.2-1.3.2-1,0-1.9-.4-2.6-1l-5.8,4.9c.2.3.5.7.5.7.2.2,1.9,2.7,1.9,2.8.2,1.3-7.3,6.9-8.4,8.4-1.2,1.7-4.9-3.2-5-3.6-.2-1.4,7.2-7.2,8.8-8.7l6.9-5.8c-.3-.5-.4-1.1-.4-1.7s.2-1.3.5-1.9l-5-6c-1,.6-2.5,3.3-4.2,2.3-.7-.4-6.1-8.3-7.1-9.7.9-1.6,3-4.4,5-3.5,1.5.7,4.9,6.1,7.8,10.2l4.5,5.3c.7-.5,1.5-.9,2.5-.9s1.7.3,2.3.7l4.7-4c0-.1.1-.3.2-.4.2-1.6-2.7-2.9-1.8-4.2.3-.5,8.2-6.6,9-7,.5-.3.7-.7,1.4-.5.5.2,3.6,4.5,2.6,5.5-2.7,2.5-5.9,4.5-8.9,6.7l-6.1,5.2c.4.6.6,1.3.6,2.1,0,1.2-.5,2.2-1.3,3l4.3,5.1s0,0,0,0c0,0,1.2-.9,1.5-1.1.8-.7,1-2.5,2.7-1.6,1.3,2.7,6.9,6.9,7.8,9.3.5,1.3-4.1,4.5-4.4,4.4Z"/>
  <path d="M391.1,455.5s0,0-.1,0c0,0,0,0,0,0,0,0-.1,0-.2,0,0,0,0,0-.1,0,0,0-.2,0-.3.1,0,0,0,0-.1,0-.1,0-.3.1-.4.2,0,0,0,0,0,0-.2,0-.4.2-.6.3,0,0-.1,0-.2,0-.2,0-.3.1-.5.2,0,0-.2,0-.3,0-.2,0-.3.1-.5.2,0,0-.2,0-.3.1-.2,0-.4.1-.6.2-.1,0-.2,0-.3,0-.2,0-.5.1-.7.2,0,0-.1,0-.2,0-.3,0-.7.2-1,.3,0,0,0,0,0,0,0,0-.1,0-.2,0-.3,0-.6.1-.8.2-.1,0-.3,0-.4,0-.2,0-.5,0-.8.1-.1,0-.3,0-.4,0-.3,0-.5,0-.8,0-.1,0-.3,0-.4,0-.3,0-.6,0-.9,0-.1,0-.2,0-.4,0-.4,0-.9,0-1.3,0,0,0,0,0,0,0-.4,0-.7,0-1.1,0-.1,0-.2,0-.3,0-.3,0-.5,0-.8,0-.1,0-.3,0-.4,0-.3,0-.5,0-.8,0-.1,0-.3,0-.4,0-.3,0-.6,0-.9-.2,0,0-.2,0-.3,0-.4,0-.8-.2-1.2-.3,0,0-.2,0-.3,0-.3,0-.6-.2-.9-.3-.1,0-.3,0-.4-.1-.3,0-.6-.2-.8-.3-.1,0-.3-.1-.4-.2-.3-.1-.6-.2-.9-.4-.1,0-.2,0-.3-.1-.4-.2-.8-.4-1.2-.6,0,0-.1,0-.2-.1-.3-.2-.7-.4-1-.6-.1,0-.3-.2-.4-.2-.3-.2-.6-.3-.8-.5-.1,0-.3-.2-.4-.3-.3-.2-.6-.4-.8-.6-.1,0-.3-.2-.4-.3-.4-.3-.8-.6-1.2-1-.4.4-.8.7-1.2,1-.1.1-.3.2-.4.3-.3.2-.6.4-.8.6-.1.1-.3.2-.4.3-.3.2-.6.4-.8.5-.1,0-.3.2-.4.2-.3.2-.7.4-1,.6,0,0-.1,0-.2.1-.4.2-.8.4-1.2.6-.1,0-.2.1-.4.2-.3.1-.6.2-.9.4-.1,0-.3.1-.4.2-.3,0-.5.2-.8.3-.1,0-.3,0-.4.1-.3,0-.6.2-.9.3,0,0-.2,0-.3,0-.4,0-.8.2-1.2.3,0,0-.2,0-.3,0-.3,0-.6.1-.9.1-.1,0-.3,0-.4,0-.3,0-.5,0-.8,0-.1,0-.3,0-.4,0-.3,0-.5,0-.8,0-.1,0-.2,0-.3,0-.4,0-.7,0-1.1,0s0,0,0,0c-.4,0-.9,0-1.3,0-.1,0-.2,0-.4,0-.3,0-.6,0-.9,0-.1,0-.3,0-.4,0-.3,0-.5,0-.8,0-.1,0-.3,0-.4,0-.3,0-.5,0-.7-.1-.1,0-.3,0-.4,0-.3,0-.6-.1-.8-.2,0,0-.2,0-.3,0-.1,0-.2,0-.4,0-.2,0-.4-.1-.6-.2,0,0-.2,0-.3,0-.2,0-.5-.1-.7-.2-.1,0-.2,0-.3-.1-.2,0-.4-.1-.6-.2-.1,0-.2,0-.3-.1-.2,0-.3-.1-.5-.2,0,0-.2,0-.3,0-.2,0-.3-.1-.5-.2,0,0-.1,0-.2,0-.2,0-.4-.2-.6-.2,0,0,0,0,0,0-.1,0-.3-.1-.4-.2,0,0-.1,0-.2,0,0,0-.2,0-.3-.1,0,0,0,0-.1,0,0,0-.1,0-.2,0,0,0,0,0,0,0,0,0,0,0-.1,0,0,0,0,0,0,0,0,0,0,0,0,0,0,.5-.1,1-.2,1.5-.9,8.6-.2,17.8.7,24.6.8,5.9,1.7,9.9,1.7,9.9,8.2,36.1,27.8,38.6,27.8,38.6,0,0,19.6-2.5,27.8-38.6,0,0,.7-3.2,1.4-8.2,1-7.3,2-18.2.8-27.9,0,0,0,0,0,0,0,0,0,0,0,0,0,0,0,0,0,0ZM387.5,491.2c-4.1,18.1-11.1,27.3-16.3,31.9-4.9,4.3-9.1,5.4-10,5.6-2-.4-18.9-4.7-26.3-37.4,0-.2-3.9-18-2.4-33.5,2.4,1,6.7,2.4,12,2.4s11.9-2,16.8-6c4.9,4,10.6,6,16.8,6s9.6-1.4,12-2.4c1.5,15.5-2.4,33.3-2.4,33.5Z"/>
  <path class="st5" d="M372.3,490.4c-1.7-.9-1.9.9-2.7,1.6-.3.2-1.4,1-1.5,1.1,0,0,0,0,0,0l-4.3-5.1c.8-.7,1.3-1.8,1.3-3s-.2-1.5-.6-2.1l6.1-5.2c3-2.2,6.2-4.2,8.9-6.7,1.1-1-2.1-5.3-2.6-5.5-.7-.2-1,.2-1.4.5-.8.4-8.7,6.5-9,7-.8,1.3,2,2.6,1.8,4.2,0,.1,0,.3-.2.4l-4.7,4c-.7-.5-1.4-.7-2.3-.7s-1.8.3-2.5.9l-4.5-5.3c-2.9-4.1-6.3-9.5-7.8-10.2-2-.9-4.1,1.9-5,3.5,1,1.4,6.4,9.2,7.1,9.7,1.7,1,3.1-1.7,4.2-2.3l5,6c-.3.6-.5,1.2-.5,1.9s.2,1.2.4,1.7l-6.9,5.8c-1.6,1.4-9,7.3-8.8,8.7,0,.3,3.7,5.2,5,3.6,1.1-1.5,8.6-7.1,8.4-8.4,0-.2-1.7-2.7-1.9-2.8,0,0-.3-.4-.5-.7l5.8-4.9c.7.6,1.6,1,2.6,1s.9,0,1.3-.2l5.2,6.2c0,0,0,.2.1.2,1,1.2,7.2,8.7,7.8,8.8.4,0,4.9-3.1,4.4-4.4-.8-2.4-6.5-6.6-7.8-9.3Z"/>
  <path class="st1" d="M425.7,388.4l12.6,4.7,15.4,8,3.5,12.3,1.9,13.7-6.2,20.1-1.2,20.9-5.5,7.7-4.3,3.9h0s-5.7,14.5-5.7,14.5l3.2,9.4c-1.1-3.8-1-7.5-.1-10.8,2.7-9.7,12.8-16.1,24-14.1,2.5.5,4.8,2.7,7,3,.8.1,1.7,0,2.5-.7,0,0,.1,0,.2-.1,9.8-8.5,16.7-37.8,11-49.4-2.2-4.4-4.6-3.5-8.2-5.3-1.1-.5-2-1.1-2.9-1.8,0,0,0,0-.1-.1-7.6-6.2-3.8-16.5,5.9-18.9-3.8-1.9-8.2-3.3-12.3-4.7-13.3-4.6-26.6-9.2-39.8-13.7-.2,0-.5-.2-.7-.2-.6-.2-1.2-.4-1.9-.6-13.7-4.7-27.3-9.4-41-14.2-7.1-2.5-14.2-4.9-21.3-7.4l61.2,22.9,2.9,1.1Z"/>
</svg>